<svg width="26" height="29" viewBox="0 0 26 29" fill="none" xmlns="http://www.w3.org/2000/svg">
<path d="M12.85 14C14.8144 14 16.5153 13.3102 17.9055 11.9492C19.2951 10.5884 20 8.92334 20 6.99978C20 5.07688 19.2954 3.41164 17.9052 2.0504C16.5151 0.689822 14.8142 0 12.85 0C10.8852 0 9.18459 0.689822 7.79467 2.05062C6.40476 3.41142 5.69995 5.07666 5.69995 6.99978C5.69995 8.92334 6.40476 10.5886 7.79467 11.9494C9.18504 13.31 10.8859 14 12.85 14V14ZM9.02492 3.25487C10.0914 2.21071 11.3425 1.70316 12.85 1.70316C14.3572 1.70316 15.6085 2.21071 16.6752 3.25487C17.7417 4.29925 18.2604 5.52434 18.2604 6.99978C18.2604 8.47566 17.7417 9.70053 16.6752 10.7449C15.6085 11.7893 14.3572 12.2968 12.85 12.2968C11.3429 12.2968 10.0919 11.7891 9.02492 10.7449C7.95819 9.70075 7.43955 8.47566 7.43955 6.99978C7.43955 5.52434 7.95819 4.29925 9.02492 3.25487Z" fill="white"/>
<path d="M25.4386 21.849C25.3977 21.2459 25.3149 20.5881 25.1929 19.8934C25.0699 19.1935 24.9114 18.5318 24.7217 17.9271C24.5255 17.3021 24.2592 16.6848 23.9295 16.0933C23.5878 15.4794 23.1861 14.9448 22.7354 14.5049C22.2642 14.0446 21.6872 13.6746 21.0199 13.4047C20.355 13.1362 19.6181 13.0002 18.8299 13.0002C18.5203 13.0002 18.2209 13.1299 17.6428 13.5141C17.2869 13.7509 16.8707 14.0248 16.4062 14.3278C16.0089 14.5861 15.4708 14.8281 14.8061 15.0473C14.1576 15.2614 13.4991 15.37 12.849 15.37C12.1994 15.37 11.5409 15.2614 10.892 15.0473C10.228 14.8284 9.68959 14.5863 9.29304 14.328C8.83287 14.0279 8.41642 13.754 8.05527 13.5138C7.47757 13.1296 7.17819 13 6.86863 13C6.08016 13 5.34352 13.1362 4.67882 13.405C4.01205 13.6744 3.43481 14.0444 2.96307 14.5051C2.51238 14.9452 2.11074 15.4796 1.76926 16.0933C1.44003 16.6848 1.17351 17.3018 0.977316 17.9273C0.787834 18.5321 0.629353 19.1935 0.50627 19.8934C0.384113 20.5871 0.301518 21.2452 0.260567 21.8497C0.220311 22.4408 0.199951 23.0559 0.199951 23.6774C0.199951 25.293 0.703156 26.6009 1.69545 27.5655C2.67549 28.5173 3.97202 29 5.5492 29H20.1507C21.7274 29 23.0239 28.5173 24.0042 27.5655C24.9967 26.6016 25.5 25.2932 25.5 23.6771C25.4997 23.0535 25.4791 22.4384 25.4386 21.849V21.849ZM22.7789 26.2514C22.1314 26.8805 21.2716 27.1863 20.1505 27.1863H5.5492C4.4278 27.1863 3.56807 26.8805 2.92073 26.2517C2.28565 25.6347 1.97702 24.7924 1.97702 23.6774C1.97702 23.0974 1.99576 22.5248 2.03324 21.9751C2.06979 21.4358 2.14452 20.8433 2.25534 20.2138C2.36477 19.5921 2.50405 19.0086 2.66971 18.4804C2.82865 17.9739 3.04543 17.4723 3.31427 16.9892C3.57085 16.5287 3.86606 16.1337 4.19181 15.8154C4.49651 15.5176 4.88057 15.2739 5.33311 15.0912C5.75163 14.9221 6.22199 14.8295 6.7326 14.8156C6.79483 14.8494 6.90565 14.9138 7.08519 15.0333C7.4505 15.2763 7.87157 15.5535 8.33707 15.8569C8.86179 16.1984 9.53782 16.5068 10.3455 16.7729C11.1712 17.0454 12.0134 17.1838 12.8493 17.1838C13.6852 17.1838 14.5275 17.0454 15.3528 16.7731C16.1612 16.5065 16.837 16.1984 17.3624 15.8565C17.8387 15.5457 18.248 15.2765 18.6133 15.0333C18.7929 14.9141 18.9037 14.8494 18.9659 14.8156C19.4768 14.8295 19.9471 14.9221 20.3659 15.0912C20.8182 15.2739 21.2022 15.5179 21.5069 15.8154C21.8327 16.1335 22.1279 16.5285 22.3845 16.9894C22.6535 17.4723 22.8706 17.9741 23.0293 18.4801C23.1952 19.0091 23.3347 19.5923 23.4439 20.2136C23.5545 20.8443 23.6294 21.437 23.666 21.9753V21.9758C23.7037 22.5234 23.7227 23.0958 23.7229 23.6774C23.7227 24.7926 23.414 25.6347 22.7789 26.2514V26.2514Z" fill="white"/>
</svg>
