<svg width="1600" height="1200" viewBox="0 0 1600 1200" fill="none" xmlns="http://www.w3.org/2000/svg">
<rect width="1600" height="1200" fill="#000002" fill-opacity="0.69"/>
<path d="M1096.21 669.606H503.657C473.992 669.606 449.922 645.536 449.922 615.871V258.734C449.922 229.07 473.992 205 503.657 205H1096.21C1125.88 205 1149.94 229.07 1149.94 258.734V615.871C1149.94 645.536 1125.88 669.606 1096.21 669.606ZM503.657 209.223C476.314 209.223 454.145 231.392 454.145 258.734V615.871C454.145 643.214 476.314 665.383 503.657 665.383H1096.21C1123.55 665.383 1145.72 643.214 1145.72 615.871V258.734C1145.72 231.392 1123.55 209.223 1096.21 209.223H503.657Z" fill="white"/>
<path d="M799.881 490.456C757.126 490.456 722.288 455.619 722.288 412.864C722.288 370.109 757.126 335.271 799.881 335.271C842.636 335.271 877.474 370.109 877.474 412.864C877.474 455.619 842.636 490.456 799.881 490.456ZM799.881 339.494C759.448 339.494 726.511 372.431 726.511 412.864C726.511 453.296 759.448 486.234 799.881 486.234C840.314 486.234 873.251 453.296 873.251 412.864C873.251 372.431 840.314 339.494 799.881 339.494Z" fill="white"/>
<path d="M791.436 441.789C784.785 441.789 779.295 436.3 779.295 429.649V396.29C779.295 394.284 779.823 392.278 780.879 390.272C784.151 384.466 791.647 382.46 797.453 385.733L826.379 402.413C828.279 403.468 829.862 405.052 830.918 406.952C832.501 409.697 832.924 412.969 832.079 416.136C831.235 419.303 829.229 421.837 826.379 423.421L797.453 440.1C795.764 441.262 793.652 441.789 791.436 441.789ZM791.436 388.266C788.691 388.266 786.052 389.639 784.574 392.172C783.835 393.545 783.518 394.917 783.518 396.184V429.544C783.518 433.872 787.107 437.461 791.436 437.461C792.913 437.461 794.18 437.144 795.447 436.405L824.373 419.726C826.167 418.67 827.54 416.981 828.068 414.975C828.595 412.864 828.384 410.752 827.329 408.852C826.695 407.585 825.64 406.635 824.478 406.002C824.478 406.002 824.478 406.002 824.373 406.002L795.447 389.322C794.18 388.689 792.808 388.266 791.436 388.266Z" fill="white"/>
<path d="M1413.76 533.634H1305.02V641.313H1413.76V533.634Z" fill="white"/>
<path d="M1411.65 535.745V639.202H1307.14V535.745H1411.65ZM1415.87 531.522H1302.91V643.424H1415.87V531.522Z" fill="black"/>
<path d="M1359.39 588.529C1389.42 588.529 1413.76 564.188 1413.76 534.162C1413.76 504.135 1389.42 479.794 1359.39 479.794C1329.37 479.794 1305.02 504.135 1305.02 534.162C1305.02 564.188 1329.37 588.529 1359.39 588.529Z" fill="white"/>
<path d="M1359.39 481.905C1388.21 481.905 1411.65 505.341 1411.65 534.161C1411.65 562.982 1388.21 586.418 1359.39 586.418C1330.57 586.418 1307.14 562.982 1307.14 534.161C1307.14 505.341 1330.57 481.905 1359.39 481.905ZM1359.39 477.682C1328.25 477.682 1302.91 503.019 1302.91 534.161C1302.91 565.304 1328.25 590.64 1359.39 590.64C1390.53 590.64 1415.87 565.304 1415.87 534.161C1415.87 503.019 1390.53 477.682 1359.39 477.682Z" fill="black"/>
<path d="M1388.42 642.369C1387.26 642.369 1386.31 641.419 1386.31 640.257V581.139C1386.31 579.978 1387.26 579.028 1388.42 579.028C1389.58 579.028 1390.53 579.978 1390.53 581.139V640.257C1390.53 641.419 1389.58 642.369 1388.42 642.369Z" fill="black"/>
<path d="M1358.86 642.369C1357.7 642.369 1356.75 641.419 1356.75 640.257V588.529C1356.75 587.368 1357.7 586.418 1358.86 586.418C1360.03 586.418 1360.98 587.368 1360.98 588.529V640.257C1360.98 641.419 1360.03 642.369 1358.86 642.369Z" fill="black"/>
<path d="M1331.42 642.369C1330.26 642.369 1329.31 641.419 1329.31 640.257V581.139C1329.31 579.978 1330.26 579.028 1331.42 579.028C1332.58 579.028 1333.53 579.978 1333.53 581.139V640.257C1333.53 641.419 1332.58 642.369 1331.42 642.369Z" fill="black"/>
<path d="M1430.23 360.713C1396.45 336.432 1377.76 379.821 1408.16 394.178C1374.59 393.756 1372.27 440.839 1413.34 433.872C1446.8 426.482 1493.57 413.919 1493.57 413.919C1493.57 413.919 1456.94 382.143 1430.23 360.713Z" fill="white"/>
<path d="M1405.42 436.722C1393.17 436.722 1387.16 431.338 1384.41 427.643C1379.87 421.415 1379.34 413.075 1383.14 405.685C1386.63 398.823 1393.28 394.178 1401.51 392.7C1394.86 387.738 1390.96 380.665 1390.75 372.959C1390.53 364.725 1394.65 357.335 1401.51 353.745C1406.37 351.212 1416.72 348.467 1431.5 359.024C1431.5 359.024 1431.6 359.024 1431.6 359.129C1457.99 380.349 1494.62 412.019 1495.05 412.336C1495.68 412.864 1495.89 413.603 1495.68 414.447C1495.47 415.292 1494.94 415.82 1494.2 416.031C1493.78 416.136 1447.01 428.699 1413.87 435.983C1410.7 436.405 1407.95 436.722 1405.42 436.722ZM1407.74 396.289C1398.24 396.289 1390.64 400.407 1386.95 407.585C1383.88 413.497 1384.31 420.148 1387.9 425.11C1392.54 431.444 1401.41 433.766 1413.02 431.76C1440.47 425.743 1477.31 416.031 1489.24 412.864C1479.95 404.84 1450.92 379.926 1429.07 362.402C1419.57 355.54 1410.49 353.745 1403.63 357.44C1398.24 360.291 1394.97 366.203 1395.07 372.853C1395.29 381.088 1400.35 388.161 1409.22 392.278C1410.17 392.7 1410.59 393.65 1410.38 394.706C1410.17 395.656 1409.33 396.395 1408.38 396.395C1407.95 396.289 1407.85 396.289 1407.74 396.289Z" fill="black"/>
<path d="M1493.46 416.136C1493.25 416.136 1493.15 416.136 1492.94 416.031L1407.53 396.184C1406.37 395.973 1405.74 394.811 1405.95 393.65C1406.16 392.489 1407.32 391.856 1408.48 392.067L1493.89 411.914C1495.05 412.125 1495.68 413.286 1495.47 414.447C1495.26 415.503 1494.41 416.136 1493.46 416.136Z" fill="black"/>
<path d="M1358.86 536.801C1357.7 536.801 1356.75 535.851 1356.75 534.689V267.602C1356.75 266.441 1357.7 265.49 1358.86 265.49C1360.03 265.49 1360.98 266.441 1360.98 267.602V534.689C1360.98 535.851 1360.03 536.801 1358.86 536.801Z" fill="black"/>
<path d="M1313.47 461.108C1358.65 452.346 1337.96 404.524 1303.34 418.036C1329.2 391.433 1293.1 353.745 1267.55 391.961C1248.12 424.476 1222.68 471.559 1222.68 471.559C1222.68 471.559 1275.99 466.387 1313.47 461.108Z" fill="white"/>
<path d="M1222.68 473.671C1221.94 473.671 1221.31 473.354 1220.89 472.721C1220.46 472.087 1220.46 471.243 1220.78 470.504C1220.99 470.081 1246.43 422.998 1265.65 390.8C1265.65 390.8 1265.65 390.694 1265.75 390.694C1276.84 374.12 1288.45 372.959 1294.47 373.698C1302.81 374.753 1309.88 380.771 1312.94 389.322C1315.79 397.451 1314.42 406.318 1309.25 414.13C1318.43 412.336 1327.19 414.553 1333.63 420.359C1340.28 426.376 1343.03 435.244 1340.81 443.267C1339.23 449.073 1333.53 459.314 1313.89 463.114H1313.79C1276.73 468.287 1223.42 473.565 1222.89 473.565C1222.79 473.671 1222.79 473.671 1222.68 473.671ZM1269.34 393.122C1253.19 420.148 1232.71 457.624 1226.48 469.131C1239.57 467.865 1282.01 463.431 1313.15 459.102C1326.03 456.569 1334.37 450.657 1336.69 442.211C1338.49 435.666 1336.27 428.488 1330.78 423.526C1324.03 417.403 1314.31 416.136 1304.18 420.042C1303.23 420.359 1302.17 420.042 1301.65 419.198C1301.12 418.353 1301.22 417.297 1301.86 416.558C1309.35 408.746 1311.99 399.351 1308.93 390.694C1306.5 383.727 1300.7 378.765 1293.94 377.92C1285.39 376.865 1276.63 382.249 1269.34 393.122Z" fill="black"/>
<path d="M1222.68 473.671C1222.05 473.671 1221.31 473.354 1220.89 472.721C1220.25 471.771 1220.46 470.398 1221.52 469.765L1302.17 416.242C1303.12 415.608 1304.5 415.82 1305.13 416.875C1305.76 417.825 1305.55 419.198 1304.5 419.831L1223.84 473.354C1223.53 473.565 1223.1 473.671 1222.68 473.671Z" fill="black"/>
<path d="M1427.17 440.1C1403.41 395.445 1359.81 432.605 1385.04 464.592C1348.73 446.012 1320.86 496.051 1369.21 510.62C1409.64 520.543 1467.28 532.05 1467.28 532.05C1467.28 532.05 1444.8 477.788 1427.17 440.1Z" fill="white"/>
<path d="M1467.28 534.161C1467.18 534.161 1466.97 534.161 1466.86 534.161C1466.33 534.056 1408.69 522.549 1368.68 512.731H1368.58C1347.67 506.397 1342.71 494.679 1341.55 488.134C1339.97 479.055 1343.98 469.87 1351.9 463.959C1359.6 458.258 1369.53 456.991 1379.45 460.053C1374.49 450.868 1373.85 440.839 1377.97 432.183C1382.19 423.315 1390.43 417.614 1399.61 417.403C1406.16 417.192 1418.72 419.831 1428.96 439.15V439.256C1446.38 476.521 1468.87 530.783 1469.08 531.311C1469.39 532.05 1469.29 532.895 1468.76 533.422C1468.55 533.845 1467.92 534.161 1467.28 534.161ZM1369.74 508.614C1403.63 516.954 1450.18 526.455 1463.8 529.2C1458.42 516.426 1440.05 472.615 1425.27 441.05C1418.51 428.277 1409.43 421.415 1399.82 421.626C1392.22 421.837 1385.36 426.587 1381.88 433.977C1377.55 443.162 1379.34 453.824 1386.73 463.22C1387.37 463.959 1387.37 465.12 1386.73 465.859C1386.1 466.598 1385.05 466.809 1384.1 466.387C1373.43 460.897 1362.66 461.214 1354.43 467.231C1347.78 472.087 1344.51 479.794 1345.77 487.289C1347.46 496.896 1355.91 504.391 1369.74 508.614Z" fill="black"/>
<path d="M1467.39 534.267C1466.97 534.267 1466.44 534.161 1466.02 533.739L1383.78 466.281C1382.83 465.542 1382.72 464.17 1383.46 463.325C1384.2 462.375 1385.57 462.27 1386.42 463.009L1468.66 530.467C1469.61 531.206 1469.71 532.578 1468.97 533.422C1468.66 534.056 1468.02 534.267 1467.39 534.267Z" fill="black"/>
<path d="M1325.82 331.048C1311.68 364.197 1351.79 371.798 1358.23 343.505L1358.97 267.602C1358.86 267.602 1338.81 304.445 1325.82 331.048Z" fill="white"/>
<path d="M1338.81 363.035C1333.42 363.035 1328.46 360.819 1325.08 356.807C1321.92 353.112 1317.69 344.772 1323.92 330.204V330.098C1330.78 316.058 1339.33 299.695 1345.35 288.293C1349.26 281.009 1352.21 275.414 1353.69 272.669C1357.6 265.385 1357.6 265.385 1358.97 265.385C1359.5 265.385 1360.03 265.596 1360.45 266.018C1360.87 266.441 1361.08 266.968 1361.08 267.496L1360.34 343.4C1360.34 343.505 1360.34 343.716 1360.34 343.822C1358.13 353.323 1351.9 360.291 1343.66 362.296C1341.97 362.824 1340.39 363.035 1338.81 363.035ZM1327.72 331.893C1323.82 341.183 1323.92 348.995 1328.25 354.062C1331.63 357.968 1337.12 359.657 1342.61 358.285C1349.36 356.596 1354.22 351.106 1356.12 343.189L1356.75 275.942C1350.31 287.976 1337.22 312.468 1327.72 331.893Z" fill="black"/>
<path d="M1303.65 419.937C1303.02 419.937 1302.28 419.62 1301.86 418.987C1301.22 418.036 1301.44 416.664 1302.49 416.031L1319.17 404.946C1329.2 398.19 1342.5 398.717 1352.11 406.318L1360.13 412.652C1361.08 413.391 1361.19 414.658 1360.45 415.608C1359.71 416.558 1358.44 416.664 1357.49 415.925L1349.47 409.591C1341.23 403.151 1330.04 402.729 1321.49 408.43L1304.81 419.514C1304.5 419.831 1304.07 419.937 1303.65 419.937Z" fill="black"/>
<path d="M1358.86 401.673C1358.23 401.673 1357.6 401.357 1357.18 400.829C1356.44 399.879 1356.65 398.612 1357.6 397.873L1364.04 393.122C1371.32 387.633 1380.61 385.733 1389.48 387.844L1404.68 391.328C1405.84 391.539 1406.58 392.7 1406.26 393.861C1406.05 395.023 1404.89 395.656 1403.73 395.445L1388.53 391.961C1380.82 390.166 1372.8 391.856 1366.47 396.606L1360.03 401.357C1359.71 401.568 1359.29 401.673 1358.86 401.673Z" fill="black"/>
<path d="M1385.26 466.598C1384.83 466.598 1384.31 466.492 1383.88 466.07L1358.13 445.062C1357.17 444.323 1357.07 442.951 1357.81 442.106C1358.55 441.156 1359.92 441.05 1360.76 441.789L1386.52 462.797C1387.47 463.536 1387.58 464.909 1386.84 465.753C1386.52 466.281 1385.89 466.598 1385.26 466.598Z" fill="black"/>
<path d="M1452.82 643.425H1265.96C1264.8 643.425 1263.85 642.474 1263.85 641.313C1263.85 640.152 1264.8 639.202 1265.96 639.202H1452.82C1453.98 639.202 1454.93 640.152 1454.93 641.313C1454.93 642.474 1453.98 643.425 1452.82 643.425Z" fill="black"/>
<path d="M130.578 931.309L109.993 909.034L118.86 876.413L137.44 873.035C141.663 872.719 145.78 872.191 149.792 871.557C185.368 865.434 205.004 846.749 205.215 846.538C205.215 846.538 216.089 836.72 238.891 810.75L266.339 794.07L316.695 911.251C311.206 917.163 306.033 923.075 302.127 927.614C297.059 933.631 295.37 936.059 295.054 937.537C263.489 961.29 232.98 979.976 204.476 993.172L130.578 931.309Z" fill="white"/>
<path d="M265.495 797.026L314.373 910.723C309.2 916.318 306.561 923.497 302.866 927.825C299.066 931.731 293.365 936.06 293.365 936.06C262.539 959.179 232.769 977.548 204.899 990.533L132.057 929.725L112.421 908.401L120.655 878.103L137.863 875.041C142.086 874.724 146.203 874.197 150.214 873.458C185.263 867.44 205.321 849.282 206.693 848.016C207.538 847.277 218.412 837.248 240.37 812.334L265.495 797.026ZM267.395 790.903L237.625 809.061C214.717 835.136 203.949 844.849 203.843 844.954C203.632 845.165 184.313 863.429 149.476 869.34C145.569 869.974 141.452 870.502 137.23 870.818L117.172 874.408L107.565 909.456L128.995 932.787L204.16 995.494L204.265 995.389C233.613 981.982 264.862 962.768 297.271 938.276L297.482 938.171L297.165 937.854C296.532 936.693 307.933 923.497 319.018 911.568L319.124 911.462L267.395 790.903Z" fill="black"/>
<path d="M203.843 845.165C203.526 844.743 177.029 797.976 199.092 779.924L199.409 779.713C199.409 779.713 199.831 779.396 200.359 779.396C202.471 779.396 209.649 780.452 218.939 786.997C229.391 794.281 237.942 809.061 238.047 809.272L238.153 809.378L238.047 809.483C215.033 835.559 204.371 845.271 204.265 845.376L204.054 845.588L203.843 845.165Z" fill="black"/>
<path d="M297.06 938.276C294.949 936.165 276.474 917.268 266.129 891.615C260.639 878.103 256.416 863.323 252.721 850.233C247.865 833.131 243.643 818.351 237.836 809.483C219.784 778.446 199.093 779.924 199.093 779.924C200.254 778.974 201.626 778.024 202.999 777.285C223.901 765.778 407.062 682.063 408.857 681.218L409.173 681.112L391.227 853.611C366.629 880.953 331.686 912.623 297.693 938.382L297.588 938.488L297.06 938.276Z" fill="#F696BB"/>
<path d="M390.804 879.053C390.382 878.947 343.193 864.168 331.792 841.259C328.941 835.453 328.519 829.647 330.525 823.84C330.736 823.524 334.959 818.984 345.938 818.984C352.272 818.984 359.662 820.568 367.791 823.735C377.081 827.324 385.948 831.969 394.183 837.353L394.288 837.459V837.564C394.077 866.701 391.121 878.736 391.121 878.842L391.016 879.053H390.804V879.053Z" fill="black"/>
<path d="M76 888.448C76.2111 888.132 84.0232 871.346 126.989 871.346C130.368 871.346 133.746 871.135 137.23 870.818H137.441L137.546 871.135C142.297 892.038 139.446 913.89 129.523 932.893L129.418 933.104L76 888.448Z" fill="#F9494B"/>
<path d="M621.049 567.521L605.108 640.257H774.017C774.017 640.257 717.01 530.467 709.62 523.077C698.852 512.309 621.049 567.521 621.049 567.521Z" fill="black"/>
<path d="M726.617 596.236C713.738 596.236 703.392 585.784 703.392 573.011C703.392 560.131 713.843 549.786 726.617 549.786C739.391 549.786 749.842 560.237 749.842 573.011C749.947 585.89 739.496 596.236 726.617 596.236Z" fill="white"/>
<path d="M726.617 551.897C738.335 551.897 747.73 561.398 747.73 573.011C747.73 584.623 738.229 594.124 726.617 594.124C715.004 594.124 705.503 584.623 705.503 573.011C705.503 561.398 715.004 551.897 726.617 551.897ZM726.617 547.674C712.576 547.674 701.28 559.076 701.28 573.011C701.28 586.946 712.682 598.347 726.617 598.347C740.552 598.347 751.953 586.946 751.953 573.011C751.953 559.076 740.657 547.674 726.617 547.674Z" fill="black"/>
<path d="M680.8 622.944C664.437 622.944 646.385 609.96 633.717 588.951C615.031 558.126 611.97 526.138 626.538 514.42C635.301 507.347 646.28 503.864 658.948 503.864C675.417 503.864 689.035 509.881 689.14 509.986C702.336 516.215 709.937 524.238 713.632 535.851C717.749 548.941 717.116 566.677 711.521 591.696C707.193 611.543 696.002 622.944 680.8 622.944Z" fill="white"/>
<path d="M659.053 501.752V505.975C674.677 505.975 687.768 511.57 688.401 511.887C710.254 522.127 721.338 539.018 709.62 591.168C705.292 610.276 695.052 620.833 680.906 620.833C665.282 620.833 647.968 608.165 635.617 587.896C626.538 572.905 620.943 557.175 619.887 543.557C618.832 530.889 621.788 521.177 628.016 516.109C636.462 509.353 646.913 505.975 659.159 505.975L659.053 501.752ZM659.053 501.752C648.074 501.752 635.934 504.286 625.271 512.837C610.07 524.977 612.392 557.809 631.922 590.113C645.54 612.599 664.332 625.056 680.8 625.056C695.685 625.056 708.565 614.71 713.737 592.118C725.35 540.496 715.638 520.015 690.196 508.086C690.196 507.981 676.155 501.752 659.053 501.752Z" fill="black"/>
<path d="M690.196 507.981C714.054 519.276 724.189 537.962 715.638 583.04C679.111 567.415 675.944 517.798 675.944 517.798C675.944 517.798 652.719 547.358 615.77 545.457C614.292 530.994 617.459 519.171 625.377 512.837C652.508 491.09 690.196 507.981 690.196 507.981Z" fill="black"/>
<path d="M652.825 581.984C652.613 581.984 652.508 581.984 652.297 581.878C650.08 581.351 647.968 580.084 646.385 578.289C644.168 575.544 642.901 570.266 641.74 558.97C641.634 557.809 642.479 556.753 643.64 556.648C644.801 556.542 645.857 557.387 645.963 558.548C646.913 568.577 648.074 573.644 649.657 575.544C650.608 576.706 651.874 577.445 653.247 577.761C654.408 578.078 655.041 579.134 654.83 580.295C654.619 581.351 653.775 581.984 652.825 581.984Z" fill="black"/>
<path d="M662.22 563.509C661.27 563.509 660.32 562.876 660.109 561.82L659.581 559.287C659.37 558.125 660.109 557.07 661.27 556.753C662.431 556.542 663.487 557.281 663.804 558.442L664.331 560.976C664.543 562.137 663.804 563.193 662.642 563.509C662.537 563.509 662.326 563.509 662.22 563.509Z" fill="black"/>
<path d="M632.344 563.509C631.394 563.509 630.549 562.876 630.338 561.926L629.705 559.287C629.388 558.125 630.127 556.964 631.288 556.753C632.45 556.436 633.611 557.175 633.822 558.337L634.455 560.976C634.772 562.137 634.033 563.298 632.872 563.509C632.661 563.509 632.555 563.509 632.344 563.509Z" fill="black"/>
<path d="M662.326 593.491C661.164 593.491 660.214 592.541 660.214 591.379C660.214 590.218 661.164 589.268 662.326 589.268C662.748 589.268 663.17 589.268 663.487 589.162C666.971 588.529 669.399 585.045 668.765 581.562C668.554 580.4 669.293 579.345 670.454 579.133C671.616 578.922 672.671 579.661 672.883 580.823C673.938 586.629 670.032 592.224 664.226 593.28C663.593 593.491 662.959 593.491 662.326 593.491Z" fill="black"/>
<path d="M729.15 575.861C729.045 575.861 729.045 575.861 728.939 575.861L716.482 574.7C715.321 574.594 714.476 573.538 714.582 572.377C714.687 571.216 715.743 570.371 716.904 570.477L729.361 571.638C730.523 571.744 731.367 572.799 731.262 573.961C731.156 575.016 730.206 575.861 729.15 575.861Z" fill="black"/>
<path d="M365.785 993.383C362.406 983.777 356.917 955.273 355.967 949.995L362.195 941.127C373.913 928.987 385.631 913.046 392.705 879.159C392.705 878.947 395.872 862.901 395.872 837.459C395.872 837.037 393.655 803.677 392.916 792.487L515.586 865.012L515.164 907.029C509.78 938.488 501.862 967.519 491.727 993.278L365.785 993.383Z" fill="white"/>
<path d="M395.344 796.393L513.475 866.279L513.052 906.923C507.774 937.643 500.173 966.041 490.25 991.272H367.263C364.518 982.51 360.295 962.24 358.078 950.522L363.779 942.605C375.603 930.253 387.637 913.996 394.711 879.686C394.711 879.475 397.983 863.218 397.983 837.67V837.564V837.459C397.983 837.037 396.189 810.011 395.344 796.393ZM390.593 788.686V789.109C390.593 789.637 393.76 837.142 393.76 837.564C393.76 862.69 390.593 878.631 390.593 878.842C383.626 912.307 372.013 927.931 360.506 939.86L353.645 949.572V949.678C353.75 949.995 360.506 986.204 364.201 995.389L364.307 995.494H493.206L493.311 995.389C503.762 969.208 511.891 939.543 517.381 907.345L517.803 863.957L390.593 788.686Z" fill="black"/>
<path d="M322.08 995.283C322.08 995.178 321.235 979.87 339.076 960.974C342.982 956.856 346.994 953.056 350.794 949.361C354.172 946.088 357.445 943.027 360.612 939.754L360.718 939.543L360.823 939.754C375.497 955.273 385.948 974.381 390.91 995.178V995.494L322.08 995.389V995.283V995.283Z" fill="#F9494B"/>
<path d="M701.175 995.178C678.583 995.178 653.986 993.594 625.06 975.12C589.589 952.423 556.546 909.879 524.031 844.849C523.926 849.705 522.87 874.619 517.275 907.345V907.556H517.064C516.853 907.556 491.728 905.234 463.541 887.498C448.972 878.314 439.682 871.135 429.865 863.429C420.047 855.828 410.018 848.016 394.183 837.987C349.211 809.8 330.419 823.841 330.419 823.841C337.598 803.466 362.09 741.814 403.261 653.876C412.763 633.607 434.932 619.988 458.368 619.988C502.601 619.988 552.007 658.204 585.578 690.297C621.154 724.184 647.018 758.494 648.496 760.394H777.29V760.5C793.23 809.061 800.726 851.183 799.459 885.809C798.403 915.051 791.225 939.121 778.029 957.384C752.798 992.433 712.893 995.178 701.175 995.178Z" fill="#F696BB"/>
<path d="M523.82 846.115C523.82 846.115 523.715 846.115 523.82 846.115C522.553 846.115 521.709 845.06 521.709 843.898C523.82 796.076 515.48 741.708 515.375 741.181C515.164 740.019 516.008 738.964 517.169 738.753C518.331 738.541 519.386 739.386 519.597 740.547C519.703 741.075 528.043 795.865 525.932 844.11C525.932 845.271 524.981 846.115 523.82 846.115Z" fill="black"/>
<path d="M680.483 812.334C679.744 812.334 679.111 812.017 678.689 811.278C668.554 794.281 657.469 777.179 646.701 761.766C646.068 760.816 646.279 759.444 647.229 758.811C648.179 758.177 649.552 758.388 650.185 759.338C661.059 774.857 672.143 792.064 682.383 809.061C683.017 810.011 682.7 811.383 681.645 811.911C681.222 812.228 680.906 812.334 680.483 812.334Z" fill="black"/>
<path d="M319.018 780.663L318.596 780.452C313.317 777.918 285.975 764.617 263.172 752.371C262.117 751.737 260.955 750.998 260.005 750.26L259.688 750.048L260.005 749.943C274.362 743.186 291.359 735.269 310.572 726.401L310.783 726.296V726.612C314.901 750.259 318.49 775.279 319.123 780.135L319.229 780.98L319.018 780.663Z" fill="#F9494B"/>
<path d="M261.483 879.158C258.527 870.396 255.888 861.528 253.777 853.928V853.822V853.716C260.005 843.687 265.6 834.714 270.562 827.008C275.524 820.146 281.436 816.451 287.348 816.451C293.048 816.451 298.115 820.04 300.332 825.635C301.388 828.169 303.922 836.825 295.476 845.482C297.799 844.743 300.016 844.426 302.127 844.426C312.367 844.426 318.49 851.816 319.018 858.889C319.546 865.751 314.901 873.88 300.438 876.097C289.459 877.258 276.368 878.314 261.694 879.369H261.589L261.483 879.158Z" fill="#F9494B"/>
<path d="M675.733 898.477C670.56 898.477 665.704 895.416 663.065 890.665C660.003 885.07 660.32 878.314 664.015 871.874C660.531 873.985 656.836 875.147 653.247 875.147C645.54 875.147 638.995 870.079 637.517 863.112C635.934 855.3 641.212 848.016 651.769 843.582C676.155 834.714 705.187 825.635 710.782 823.946L711.626 823.629L711.415 824.474C709.726 830.069 701.069 859.206 692.624 883.803C688.823 893.093 682.7 898.477 675.733 898.477Z" fill="#F9494B"/>
<path d="M488.983 673.406C482.437 673.406 477.159 669.183 475.47 662.744C473.992 656.937 475.576 648.386 484.866 642.791C484.549 642.791 484.127 642.791 483.81 642.791C476.842 642.791 471.036 639.835 467.763 634.662C464.913 630.229 464.491 624.95 466.602 620.516L466.708 620.411H466.813C485.288 622.311 505.874 630.334 528.043 644.269L528.254 644.375L528.043 644.586C519.175 653.031 511.152 660.527 504.184 666.861C499.012 671.189 493.733 673.406 488.983 673.406Z" fill="#F9494B"/>
<path d="M761.137 919.802C749.842 919.802 744.669 912.834 744.563 905.867C744.352 897.949 750.369 889.609 762.193 888.659C752.375 884.331 749.314 875.78 750.581 869.129C751.953 862.162 757.443 857.728 764.516 857.728C768.844 857.728 773.489 859.311 778.451 862.478C784.785 866.912 791.858 872.191 799.67 877.891L799.775 877.997V878.103C799.881 888.871 798.931 899.744 797.136 910.406V910.512H797.031C786.579 913.785 777.078 916.635 768.738 918.957C765.994 919.485 763.46 919.802 761.137 919.802Z" fill="#F9494B"/>
<path d="M566.998 917.268C561.191 909.351 555.279 900.378 549.368 890.771V890.665C549.579 881.903 549.79 873.88 550.107 866.807C551.479 852.45 559.186 847.277 565.942 847.277C570.587 847.277 575.126 849.599 578.082 853.505C581.46 857.939 582.411 863.745 580.933 869.974C584.944 865.54 590.011 863.112 595.29 863.112C601.835 863.112 607.641 866.912 609.647 872.719C612.075 879.475 608.803 887.182 600.779 893.727C591.489 900.589 580.194 908.506 567.42 917.374L567.209 917.48L566.998 917.268Z" fill="#F9494B"/>
<path d="M446.967 876.308C440.738 871.768 435.354 867.757 429.759 863.323L427.014 861.212L427.12 861.106C433.243 847.171 438.838 834.925 443.799 824.58C448.339 816.345 454.356 811.806 460.796 811.806C466.18 811.806 471.142 815.078 473.57 820.251C476.42 826.269 475.47 833.447 470.825 839.57C473.886 838.198 476.842 837.459 479.798 837.459C487.927 837.459 495 843.054 496.056 850.549C497.428 860.367 488.56 866.596 479.798 869.129C470.403 871.346 459.529 873.774 447.178 876.308H446.967Z" fill="#F9494B"/>
<path d="M400.411 781.719C394.605 781.719 388.693 778.024 383.731 771.162C378.031 762.506 371.591 752.265 364.412 740.653L364.307 740.547V740.442C367.263 733.58 370.43 726.401 373.597 719.117L373.702 719.011H373.808C388.587 719.962 402.206 721.017 413.29 722.179C427.753 724.395 432.398 732.419 431.87 739.281C431.342 746.248 425.219 753.743 414.979 753.743C412.868 753.743 410.651 753.427 408.329 752.688C416.88 761.239 414.346 770.001 413.29 772.535C411.179 778.13 406.006 781.719 400.411 781.719Z" fill="#F9494B"/>
<path d="M696.636 995.178C688.085 995.178 679.428 994.439 670.877 993.066H670.771V992.961C664.121 982.932 658.314 973.747 653.458 965.935C649.024 957.912 648.391 950.522 651.558 945.138C654.092 940.916 658.631 938.382 663.909 938.382C669.821 938.382 677.211 941.76 680.695 951.261C682.278 939.86 690.513 934.687 697.691 934.687C702.125 934.687 706.242 936.693 708.776 940.071C711.204 943.344 713.527 949.361 710.465 959.707C706.876 969.841 702.442 981.665 697.375 994.967L697.269 995.178H696.636Z" fill="#F9494B"/>
<path d="M331.159 825.741C330.947 825.741 330.736 825.741 330.42 825.635C329.364 825.213 328.731 824.052 329.153 822.89C337.176 800.299 357.445 750.787 384.576 690.825C385.104 689.769 386.265 689.241 387.321 689.769C388.377 690.297 388.904 691.458 388.377 692.514C361.351 752.477 341.082 801.882 333.164 824.368C332.848 825.213 332.003 825.741 331.159 825.741Z" fill="black"/>
<path d="M786.685 794.387H669.504C668.343 794.387 667.393 793.437 667.393 792.276C667.393 791.114 668.343 790.164 669.504 790.164H786.685C787.846 790.164 788.796 791.114 788.796 792.276C788.796 793.437 787.846 794.387 786.685 794.387Z" fill="black"/>
<path d="M475.576 768.628C465.863 761.767 455.518 754.482 444.75 748.254C410.968 728.407 399.25 727.774 386.793 726.929C383.309 726.718 379.614 726.507 375.391 725.768C369.902 724.818 366.524 723.023 365.257 720.278C363.462 716.583 366.101 712.044 366.101 711.938L366.84 710.672L365.996 709.51C360.295 702.121 367.157 696.314 367.896 695.681L369.374 694.52L368.424 692.936C366.946 690.402 366.524 688.08 367.157 686.074C368.318 682.274 372.752 680.162 372.858 680.162L374.125 679.635V678.262C374.125 669.183 387.426 663.588 408.962 663.588C423.425 663.588 439.999 666.122 456.996 670.767C469.453 674.251 486.238 680.057 507.035 688.08L549.79 708.771L512.313 788.264L475.576 768.628Z" fill="white"/>
<path d="M408.751 665.7C423.003 665.7 439.366 668.128 456.151 672.878C468.503 676.362 485.288 682.063 505.979 690.086L546.729 709.827L511.363 785.414L476.631 766.834C466.919 759.972 456.573 752.688 445.7 746.459C411.496 726.401 399.461 725.662 386.898 724.923C383.415 724.712 379.825 724.501 375.708 723.762C372.436 723.234 368.318 722.073 367.157 719.434C365.89 716.795 367.896 713.1 367.896 713.1L369.374 710.672L367.685 708.349C365.785 705.815 365.362 703.493 366.524 701.065C367.474 698.954 369.268 697.476 369.268 697.476L372.224 695.153L370.324 691.986C369.163 689.98 368.741 688.291 369.268 686.813C370.007 684.385 372.752 682.59 373.808 682.168L376.236 681.007V678.262C376.025 670.661 388.904 665.7 408.751 665.7ZM408.751 661.477C386.793 661.477 371.802 667.283 371.802 678.262C371.802 678.262 360.19 683.541 366.524 694.097C366.524 694.097 357.023 701.487 364.201 710.883C364.201 710.883 355.967 724.712 374.969 727.879C393.971 731.046 400.306 724.712 443.588 750.049C454.145 756.277 464.28 763.245 474.414 770.423L513.263 791.22L552.324 707.821L507.668 686.18C489.405 679.107 471.353 672.773 457.312 668.761C439.682 663.799 422.792 661.477 408.751 661.477Z" fill="black"/>
<path d="M584.944 818.879C583.466 818.879 581.883 818.879 580.405 818.773C538.705 816.345 507.879 794.493 478.215 773.379L474.203 770.529L507.668 685.863L507.879 685.968C546.834 700.959 587.267 718.906 590.328 720.278C591.489 717.745 604.685 690.719 625.06 655.037C647.229 616.293 663.276 603.203 688.612 603.203C701.175 603.203 716.06 606.053 746.78 640.257C779.084 676.256 798.403 706.66 799.67 723.762C800.725 739.069 794.603 748.359 789.324 753.532C783.518 759.022 777.395 760.922 777.395 760.922H675.099C673.199 763.561 638.256 818.879 584.944 818.879Z" fill="#F9494B"/>
<path d="M674.783 762.716C674.361 762.716 674.044 762.611 673.727 762.4C672.777 761.766 672.46 760.5 672.988 759.444C680.906 746.67 692.835 727.246 707.72 691.141C708.142 690.086 709.409 689.558 710.465 689.98C711.521 690.402 712.048 691.669 711.626 692.725C696.635 729.146 684.601 748.676 676.683 761.661C676.155 762.4 675.522 762.716 674.783 762.716Z" fill="black"/>
<path d="M439.471 683.541C439.26 683.541 439.154 683.54 438.943 683.435C438.626 683.329 402.416 674.145 373.702 682.379C372.541 682.696 371.379 682.063 371.063 680.901C370.746 679.74 371.379 678.579 372.541 678.262C402.311 669.711 438.415 678.896 439.999 679.318C441.16 679.634 441.793 680.796 441.477 681.851C441.266 682.907 440.421 683.541 439.471 683.541Z" fill="black"/>
<path d="M434.404 699.376C434.193 699.376 434.087 699.376 433.876 699.27C433.56 699.164 402.206 691.036 369.374 697.159C368.213 697.37 367.157 696.631 366.946 695.47C366.735 694.308 367.474 693.253 368.635 693.042C402.523 686.707 433.665 694.836 435.038 695.153C436.199 695.47 436.832 696.631 436.516 697.686C436.199 698.742 435.354 699.376 434.404 699.376Z" fill="black"/>
<path d="M429.126 715.211C429.02 715.211 428.915 715.211 428.809 715.211C395.872 709.721 378.559 711.199 367.263 713.1C366.102 713.311 365.046 712.466 364.835 711.41C364.624 710.249 365.468 709.193 366.524 708.982C378.242 707.082 395.977 705.499 429.548 711.094C430.709 711.305 431.448 712.361 431.237 713.522C431.026 714.472 430.182 715.211 429.126 715.211Z" fill="black"/>
<path d="M297.904 365.147C297.377 365.147 296.849 364.936 296.427 364.514L258.95 325.77L221.473 364.514C220.629 365.358 219.362 365.358 218.517 364.514C217.673 363.669 217.673 362.402 218.517 361.558L257.472 321.231C258.316 320.386 259.689 320.386 260.533 321.231L299.488 361.558C300.333 362.402 300.227 363.775 299.488 364.514C298.96 364.936 298.432 365.147 297.904 365.147Z" fill="black"/>
<path d="M349.738 360.185H168.055V562.137H349.738V360.185Z" fill="white"/>
<path d="M349.738 564.249H168.055C166.894 564.249 165.944 563.298 165.944 562.137V360.185C165.944 359.024 166.894 358.074 168.055 358.074H349.738C350.899 358.074 351.849 359.024 351.849 360.185V562.137C351.849 563.298 350.899 564.249 349.738 564.249ZM170.167 560.026H347.627V362.297H170.167V560.026Z" fill="black"/>
<path d="M307.405 404.735C306.877 404.735 306.35 404.524 305.927 404.102C305.083 403.257 305.083 401.99 305.927 401.146L345.304 361.769C346.149 360.924 347.416 360.924 348.26 361.769C349.105 362.613 349.105 363.88 348.26 364.725L308.883 404.102C308.461 404.524 307.933 404.735 307.405 404.735Z" fill="black"/>
<path d="M210.494 404.735C209.966 404.735 209.438 404.524 209.016 404.102L169.639 364.725C168.794 363.88 168.794 362.613 169.639 361.769C170.483 360.924 171.75 360.924 172.595 361.769L211.972 401.146C212.816 401.99 212.816 403.257 211.972 404.102C211.549 404.524 211.022 404.735 210.494 404.735Z" fill="black"/>
<path d="M258.949 339.072C266.121 339.072 271.934 333.258 271.934 326.087C271.934 318.915 266.121 313.102 258.949 313.102C251.778 313.102 245.964 318.915 245.964 326.087C245.964 333.258 251.778 339.072 258.949 339.072Z" fill="white"/>
<path d="M258.949 341.183C250.609 341.183 243.853 334.427 243.853 326.087C243.853 317.747 250.609 310.99 258.949 310.99C267.289 310.99 274.045 317.747 274.045 326.087C274.045 334.427 267.289 341.183 258.949 341.183ZM258.949 315.213C252.932 315.213 248.076 320.069 248.076 326.087C248.076 332.104 252.932 336.96 258.949 336.96C264.967 336.96 269.823 332.104 269.823 326.087C269.823 320.069 264.967 315.213 258.949 315.213Z" fill="black"/>
<path d="M171.117 561.187C170.589 561.187 170.061 560.976 169.639 560.554C168.794 559.709 168.794 558.442 169.639 557.598L209.016 518.221C209.86 517.376 211.127 517.376 211.972 518.221C212.816 519.065 212.816 520.332 211.972 521.177L172.595 560.554C172.172 560.976 171.645 561.187 171.117 561.187Z" fill="black"/>
<path d="M346.782 561.187C346.254 561.187 345.727 560.976 345.304 560.554L305.927 521.177C305.083 520.332 305.083 519.065 305.927 518.221C306.772 517.376 308.039 517.376 308.883 518.221L348.26 557.598C349.105 558.442 349.105 559.709 348.26 560.554C347.838 560.976 347.31 561.187 346.782 561.187Z" fill="black"/>
<path d="M307.3 402.729H210.6V519.699H307.3V402.729Z" fill="white"/>
<path d="M305.188 404.841V517.587H212.711V404.841H305.188ZM309.411 400.618H208.488V521.81H309.411V400.618Z" fill="black"/>
<path d="M1400.14 779.924C1398.98 778.974 1397.61 778.024 1396.24 777.285C1375.33 765.778 1192.28 682.063 1190.38 681.218L1190.06 681.112L1208.01 853.611C1232.5 880.953 1267.55 912.729 1301.54 938.382L1301.96 938.488L1302.17 938.276C1304.18 936.271 1322.65 917.268 1333.11 891.615C1338.59 877.997 1342.82 863.217 1346.51 850.233C1351.37 833.131 1355.59 818.351 1361.4 809.483C1375.44 786.364 1391.8 779.924 1400.14 779.924Z" fill="#6C79D9"/>
<path d="M1204.73 837.565L1204.84 837.354C1213.07 831.864 1222.05 827.325 1231.23 823.735C1239.36 820.568 1246.75 818.985 1253.08 818.985C1263.96 818.985 1268.29 823.524 1268.39 823.735C1270.5 829.541 1270.08 835.453 1267.13 841.259C1255.62 864.062 1208.54 878.842 1208.11 879.053L1207.9 879.158C1207.9 879.158 1204.95 866.596 1204.73 837.565Z" fill="black"/>
<path d="M1394.86 845.165C1394.76 845.06 1383.99 835.348 1361.08 809.272L1360.98 809.167L1361.08 809.061C1361.19 808.956 1369.74 795.337 1379.03 787.947C1388.63 780.241 1397.82 779.924 1399.61 779.924C1399.82 779.924 1399.93 779.924 1399.93 779.924H1400.14C1422.2 797.976 1395.5 844.743 1395.29 845.165L1395.18 845.377L1394.86 845.165Z" fill="black"/>
<path d="M1036.88 649.759H1089.67L1103.39 547.358H1023.16L1036.88 649.759Z" fill="#F9494B"/>
<path d="M1063.27 577.972C1085.43 577.972 1103.39 563.793 1103.39 546.302C1103.39 528.811 1085.43 514.631 1063.27 514.631C1041.12 514.631 1023.16 528.811 1023.16 546.302C1023.16 563.793 1041.12 577.972 1063.27 577.972Z" fill="#F696BB"/>
<path d="M1063.27 547.358C1062.11 547.358 1061.16 546.407 1061.16 545.246V489.295C1061.16 488.134 1062.11 487.184 1063.27 487.184C1064.43 487.184 1065.38 488.134 1065.38 489.295V545.246C1065.38 546.407 1064.43 547.358 1063.27 547.358Z" fill="black"/>
<path d="M1089.56 651.237C1087.03 651.237 1085.02 650.287 1084.07 648.386C1083.01 646.381 1083.44 643.741 1085.13 641.419L1086.39 639.73L1084.6 638.463C1084.6 638.463 1081.01 635.929 1081.01 632.551C1081.01 630.44 1082.49 628.223 1085.34 626.006L1088.4 623.789L1084.91 622.417C1084.91 622.417 1081.01 620.833 1080.48 617.666C1079.95 615.027 1081.85 611.649 1085.87 607.954L1087.66 606.265L1085.76 604.681C1085.76 604.681 1081.85 601.514 1081.85 597.503C1081.85 595.286 1083.12 593.069 1085.76 591.063C1088.08 589.163 1096.53 584.307 1099.59 582.617L1100.43 582.09L1101.7 575.228C1104.87 576.811 1106.87 579.345 1107.72 582.723C1108.98 587.896 1106.98 593.491 1105.18 595.391L1103.18 597.397L1105.61 598.769C1105.71 598.769 1108.03 600.247 1108.77 603.309C1109.62 606.476 1108.56 610.276 1105.82 614.816L1104.76 616.505L1106.35 617.666C1106.35 617.666 1108.77 619.566 1109.2 622.839C1109.51 625.478 1108.46 628.434 1105.92 631.496L1104.87 632.762L1105.92 634.029C1106.03 634.135 1107.82 636.563 1106.98 639.835C1106.03 643.53 1101.91 646.908 1095.16 649.759C1093.15 650.815 1091.25 651.237 1089.56 651.237Z" fill="white"/>
<path d="M1103.18 579.028C1104.34 580.189 1105.18 581.667 1105.61 583.356C1106.66 587.896 1104.87 592.646 1103.6 594.019L1099.69 597.925L1104.55 600.67C1104.55 600.67 1106.13 601.725 1106.77 603.837C1107.4 606.37 1106.56 609.854 1104.13 613.76L1101.91 617.033L1105.18 619.25C1105.4 619.355 1106.56 620.411 1106.98 622.1C1107.72 624.422 1106.87 627.167 1104.45 630.123L1102.12 632.762L1104.45 635.402C1104.66 635.718 1105.71 637.302 1105.18 639.413C1104.34 642.369 1100.64 645.325 1094.52 647.859C1092.73 648.598 1091.04 649.02 1089.67 649.02C1088.61 649.02 1086.82 648.809 1086.08 647.331C1085.44 646.064 1085.76 644.269 1086.92 642.58L1089.45 639.096L1085.97 636.668C1085.23 636.141 1083.23 634.346 1083.23 632.446C1083.23 630.651 1085.13 628.856 1086.71 627.59L1092.73 623.05L1085.65 620.305C1085.23 620.094 1082.8 618.827 1082.49 617.138C1082.17 615.344 1083.86 612.493 1087.24 609.326L1090.83 606.054L1087.03 602.992C1086.18 602.253 1083.86 599.825 1083.86 597.503C1083.86 595.919 1084.91 594.335 1086.92 592.646C1088.93 591.063 1096.32 586.735 1100.43 584.412L1102.23 583.462L1102.54 581.456L1103.18 579.028ZM1100.01 572.483L1098.53 580.928C1098.53 580.928 1087.34 587.157 1084.39 589.585C1073.83 598.03 1084.39 606.476 1084.39 606.476C1070.66 619.144 1084.07 624.422 1084.07 624.422C1072.77 632.868 1083.33 640.258 1083.33 640.258C1079.11 646.17 1081.96 653.348 1089.45 653.348C1091.35 653.348 1093.57 652.926 1096 651.87C1116.06 643.425 1107.61 632.868 1107.61 632.868C1116.06 622.311 1107.61 615.977 1107.61 615.977C1116.06 602.253 1106.56 596.975 1106.56 596.975C1110.78 592.752 1113.95 576.917 1100.01 572.483Z" fill="black"/>
<path d="M1087.66 608.587C1086.81 608.587 1085.97 608.059 1085.65 607.109C1085.34 606.053 1085.86 604.787 1087.03 604.47C1087.13 604.47 1097.27 601.092 1102.54 595.18C1103.28 594.335 1104.66 594.23 1105.5 595.074C1106.34 595.813 1106.45 597.186 1105.61 598.03C1099.48 604.681 1088.72 608.27 1088.19 608.376C1088.08 608.587 1087.87 608.587 1087.66 608.587Z" fill="black"/>
<path d="M1086.5 626.534C1085.55 626.534 1084.7 625.9 1084.49 624.95C1084.18 623.789 1084.81 622.628 1085.97 622.311C1089.88 621.15 1100.75 617.455 1103.92 613.549C1104.66 612.599 1106.03 612.493 1106.87 613.232C1107.82 613.971 1107.93 615.238 1107.19 616.188C1102.65 621.783 1088.72 625.9 1087.13 626.428C1086.92 626.534 1086.71 626.534 1086.5 626.534Z" fill="black"/>
<path d="M1086.5 642.686C1085.55 642.686 1084.7 642.052 1084.49 641.102C1084.18 639.941 1084.81 638.78 1085.97 638.463C1086.08 638.463 1098.32 635.085 1104.13 630.123C1104.97 629.384 1106.35 629.49 1107.08 630.44C1107.82 631.39 1107.72 632.657 1106.77 633.396C1100.12 638.885 1087.55 642.475 1086.92 642.58C1086.92 642.686 1086.71 642.686 1086.5 642.686Z" fill="black"/>
<path d="M1339.97 965.302C1327.3 957.173 1314.42 948.094 1301.54 938.488L1301.33 938.382L1301.65 938.065C1303.76 935.954 1322.13 917.057 1332.47 891.51C1337.96 877.997 1342.18 863.218 1345.88 850.233C1350.84 833.025 1355.06 818.034 1360.98 809.167L1361.08 808.956L1361.29 809.167C1384.2 835.242 1394.97 844.954 1395.07 845.06C1395.39 845.377 1423.05 871.346 1472.03 871.346C1494.41 871.346 1507.08 875.991 1513.73 879.792C1521.02 884.015 1522.81 888.132 1522.92 888.343L1523.02 888.448L1440.26 957.596L1440.15 957.49C1427.27 947.144 1411.01 941.444 1394.44 941.444H1394.23C1373.75 941.444 1354.01 950.1 1340.28 965.302L1340.18 965.408L1339.97 965.302Z" fill="#98D8F4"/>
<path d="M1394.55 995.495C1375.75 986.732 1357.39 976.598 1339.97 965.302L1339.76 965.196L1339.97 964.985C1353.9 949.678 1373.75 940.916 1394.34 940.916C1411.01 940.916 1427.38 946.616 1440.36 957.068L1440.57 957.279L1394.76 995.6L1394.55 995.495Z" fill="#6C79D9"/>
<path d="M1166.2 995.494C1157.55 963.613 1128.51 941.443 1095.58 941.338C1093.47 941.338 1091.25 941.443 1088.93 941.655H1088.82L1088.72 941.443C1085.97 930.359 1083.65 918.852 1081.64 907.345V907.239L1081.75 907.134C1102.23 895.521 1204.1 837.353 1204.95 837.353H1205.16V837.564C1205.16 862.69 1208.32 878.63 1208.32 878.842C1215.29 912.307 1226.9 927.931 1238.41 939.86C1241.58 943.238 1244.85 946.3 1248.33 949.467C1252.13 953.056 1256.15 956.856 1260.05 961.079C1277.89 979.976 1277.05 995.178 1277.05 995.389V995.6H1166.2V995.494Z" fill="#98D8F4"/>
<path d="M1105.71 995.494C1098.85 977.865 1093.04 959.812 1088.72 941.549L1088.61 941.338H1088.82C1091.14 941.127 1093.36 941.021 1095.58 941.021C1128.73 941.021 1157.86 963.402 1166.62 995.283L1166.73 995.6H1105.71V995.494V995.494Z" fill="#6C79D9"/>
<path d="M954.538 809.167C932.791 809.167 914.739 795.971 899.537 768.734C884.757 742.342 874.834 706.238 867.867 677.734C865.966 669.817 866.389 663.905 869.345 660.21C872.089 656.726 877.262 654.932 884.652 654.932C911.15 654.932 956.333 677.734 956.755 678.051L958.55 678.896L959.605 677.207C973.857 653.348 993.809 626.006 1012.92 603.837C1034.98 578.395 1047.54 569.316 1051.66 569.316C1051.87 569.316 1051.98 569.316 1052.08 569.421C1053.24 569.844 1053.98 570.583 1054.41 571.638C1055.57 574.911 1053.98 581.351 1049.97 589.691C1046.8 596.447 1043.11 602.042 1043.11 602.148L1042.69 602.887L1042.79 603.731C1042.79 603.942 1046.17 625.161 1034.24 640.047L1033.71 640.786L1035.09 651.976H1078.26C1070.03 673.301 1015.98 809.167 954.538 809.167Z" fill="white"/>
<path d="M1051.56 571.427C1051.98 571.638 1052.19 571.849 1052.4 572.272C1054.19 577.339 1046.8 592.33 1041.32 600.881L1040.47 602.253L1040.68 603.837C1040.68 604.048 1043.85 624.422 1032.55 638.463L1031.39 639.835L1031.6 641.63L1032.66 650.075L1033.08 653.77H1036.78H1074.99C1070.14 666.227 1057.47 697.476 1039.73 728.301C1019.25 764.089 987.792 806.844 954.327 806.844C933.319 806.844 916.006 793.965 901.226 767.467C886.552 741.286 876.734 705.393 869.767 676.995C867.972 669.711 868.289 664.433 870.822 661.266C873.145 658.31 877.79 656.832 884.441 656.832C910.411 656.832 955.172 679.423 955.594 679.635L959.078 681.429L961.083 678.051C975.335 654.298 995.182 626.956 1014.18 604.998C1035.72 580.717 1048.28 571.638 1051.56 571.427ZM1051.66 567.204C1038.57 567.204 988.426 624.845 957.705 676.151C957.705 676.151 911.994 652.82 884.652 652.82C870.4 652.82 861.216 659.154 865.861 678.262C882.224 744.876 904.921 811.278 954.538 811.278C1023.16 811.278 1081.22 649.759 1081.22 649.759H1036.88L1035.83 641.313C1048.49 625.478 1044.8 603.309 1044.8 603.309C1044.8 603.309 1065.38 571.638 1052.72 567.416C1052.4 567.31 1052.08 567.204 1051.66 567.204Z" fill="black"/>
<path d="M872.3 596.236C859.421 596.236 849.075 585.784 849.075 573.011C849.075 560.131 859.527 549.786 872.3 549.786C885.18 549.786 895.525 560.237 895.525 573.011C895.525 585.89 885.074 596.236 872.3 596.236Z" fill="white"/>
<path d="M872.3 551.897C884.019 551.897 893.414 561.398 893.414 573.011C893.414 584.623 883.913 594.124 872.3 594.124C860.688 594.124 851.187 584.623 851.187 573.011C851.187 561.398 860.582 551.897 872.3 551.897ZM872.3 547.674C858.26 547.674 846.964 559.076 846.964 573.011C846.964 586.946 858.365 598.347 872.3 598.347C886.235 598.347 897.637 586.946 897.637 573.011C897.637 559.076 886.341 547.674 872.3 547.674Z" fill="black"/>
<path d="M918.117 622.944C903.021 622.944 891.725 611.543 887.291 591.591C875.256 538.068 886.974 520.649 909.672 509.881C909.777 509.881 923.395 503.758 939.864 503.758C952.638 503.758 963.511 507.347 972.274 514.315C986.842 525.927 983.78 558.02 965.095 588.846C952.427 609.854 934.375 622.944 918.117 622.944Z" fill="white"/>
<path d="M939.864 505.975C952.11 505.975 962.561 509.353 971.007 516.109C977.341 521.177 980.191 530.889 979.135 543.557C977.974 557.175 972.379 572.905 963.406 587.896C951.16 608.27 933.741 620.833 918.117 620.833C903.865 620.833 893.625 610.276 889.402 591.168C877.684 539.018 888.769 522.127 910.622 511.887C911.149 511.57 924.134 505.975 939.864 505.975ZM939.864 501.752C922.762 501.752 908.827 508.086 908.827 508.086C883.385 520.015 873.673 540.496 885.285 592.119C890.353 614.71 903.232 625.056 918.223 625.056C934.691 625.056 953.482 612.493 967.101 590.113C986.631 557.809 988.953 525.083 973.751 512.837C962.983 504.286 950.738 501.752 939.864 501.752Z" fill="black"/>
<path d="M946.093 581.984C945.142 581.984 944.298 581.35 944.087 580.4C943.77 579.239 944.509 578.078 945.67 577.867C947.043 577.55 948.309 576.705 949.26 575.544C950.843 573.644 951.899 568.577 952.849 558.548C952.954 557.386 954.01 556.542 955.171 556.647C956.333 556.753 957.177 557.809 957.072 558.97C955.91 570.371 954.749 575.544 952.532 578.289C950.949 580.189 948.837 581.456 946.62 581.984C946.409 581.984 946.304 581.984 946.093 581.984Z" fill="black"/>
<path d="M936.697 563.509C936.591 563.509 936.38 563.509 936.275 563.509C935.114 563.298 934.375 562.137 934.691 560.976L935.219 558.442C935.43 557.281 936.591 556.542 937.753 556.753C938.914 556.964 939.653 558.126 939.336 559.287L938.808 561.82C938.597 562.876 937.647 563.509 936.697 563.509Z" fill="black"/>
<path d="M966.573 563.51C966.362 563.51 966.256 563.51 966.045 563.404C964.884 563.087 964.25 562.032 964.462 560.87L965.095 558.231C965.412 557.07 966.467 556.437 967.629 556.648C968.79 556.964 969.423 558.02 969.212 559.181L968.579 561.821C968.368 562.876 967.523 563.51 966.573 563.51Z" fill="black"/>
<path d="M936.591 593.491C935.958 593.491 935.325 593.491 934.586 593.385C928.779 592.33 924.873 586.735 925.929 580.928C926.14 579.767 927.196 579.028 928.357 579.239C929.518 579.45 930.257 580.506 930.046 581.667C929.729 583.356 930.152 585.045 931.102 586.523C932.157 588.001 933.635 588.951 935.325 589.268C935.641 589.374 936.063 589.374 936.486 589.374C937.647 589.374 938.597 590.324 938.597 591.485C938.597 592.646 937.753 593.491 936.591 593.491Z" fill="black"/>
<path d="M869.767 575.861C868.711 575.861 867.761 575.017 867.655 573.961C867.55 572.8 868.394 571.744 869.556 571.638L882.013 570.477C883.174 570.371 884.23 571.216 884.335 572.377C884.441 573.539 883.596 574.594 882.435 574.7L869.978 575.861C869.872 575.861 869.872 575.861 869.767 575.861Z" fill="black"/>
<path d="M1009.43 505.13C1000.99 492.04 973.963 490.562 960.767 505.447C935.958 495.84 908.722 507.981 908.722 507.981C884.863 519.276 874.729 537.962 883.28 583.04C919.806 567.416 922.973 517.799 922.973 517.799C922.973 517.799 945.143 545.985 980.613 545.457C980.719 545.457 980.825 545.457 980.825 545.457C981.564 545.457 982.303 545.457 983.042 545.352V545.246C1008.17 542.818 1020.73 522.549 1009.43 505.13Z" fill="black"/>
<path d="M897.742 995.178C886.13 995.178 846.12 992.433 820.783 957.384C807.587 939.227 800.408 915.157 799.353 885.809C798.086 851.183 805.581 809.061 821.522 760.5V760.394H950.315C951.793 758.494 977.657 724.079 1013.23 690.297C1046.8 658.204 1096.21 619.989 1140.44 619.989C1163.88 619.989 1186.05 633.607 1195.55 653.876C1236.72 741.814 1261.21 803.572 1268.39 823.841C1268.39 823.841 1248.02 809.8 1204.63 837.987C1188.9 848.016 1178.76 855.933 1168.95 863.429C1159.02 871.135 1149.73 878.314 1135.27 887.498C1107.08 905.234 1081.96 907.556 1081.75 907.556H1081.54V907.345C1075.94 874.619 1074.99 849.705 1074.78 844.849C1042.27 909.773 1009.12 952.423 973.751 975.12C944.826 993.594 920.334 995.178 897.742 995.178Z" fill="#6C79D9"/>
<path d="M1075.31 846.116C1074.15 846.116 1073.3 845.271 1073.2 844.11C1071.09 795.865 1079.43 741.075 1079.53 740.547C1079.74 739.386 1080.8 738.647 1081.96 738.753C1083.12 738.964 1083.86 740.019 1083.75 741.181C1083.65 741.709 1075.41 796.076 1077.42 843.899C1077.42 845.06 1076.57 846.116 1075.31 846.116C1075.31 846.116 1075.41 846.116 1075.31 846.116Z" fill="black"/>
<path d="M918.645 812.334C918.328 812.334 917.906 812.228 917.589 812.017C916.639 811.384 916.217 810.117 916.85 809.167C926.985 792.17 938.175 774.963 949.049 759.444C949.682 758.494 951.054 758.283 952.004 758.916C952.955 759.55 953.166 760.922 952.532 761.872C941.764 777.285 930.68 794.387 920.545 811.384C920.017 812.017 919.384 812.334 918.645 812.334Z" fill="black"/>
<path d="M1267.97 825.741C1267.13 825.741 1266.28 825.213 1265.96 824.368C1257.94 801.882 1237.78 752.477 1210.75 692.725C1210.22 691.669 1210.75 690.402 1211.81 689.98C1212.86 689.452 1214.13 689.98 1214.55 691.036C1241.68 750.999 1261.95 800.51 1269.98 823.102C1270.4 824.157 1269.76 825.424 1268.71 825.846C1268.39 825.741 1268.18 825.741 1267.97 825.741Z" fill="black"/>
<path d="M929.201 794.387H812.021C810.86 794.387 809.909 793.437 809.909 792.276C809.909 791.115 810.86 790.164 812.021 790.164H929.201C930.363 790.164 931.313 791.115 931.313 792.276C931.313 793.437 930.363 794.387 929.201 794.387Z" fill="black"/>
<path d="M915.056 911.884C913.578 911.884 912.205 911.779 910.833 911.462C881.274 905.867 886.869 848.121 890.986 806C891.514 801.038 891.936 796.393 892.253 792.17C892.358 791.009 893.308 790.164 894.575 790.27C895.737 790.376 896.581 791.431 896.476 792.592C896.159 796.815 895.631 801.566 895.209 806.527C891.514 844.743 885.919 902.594 911.677 907.451C912.839 907.662 914 907.767 915.161 907.767C946.093 907.767 990.853 836.403 1020.83 788.581C1027.59 777.813 1033.93 767.678 1039.41 759.55C1062.43 725.029 1091.99 685.757 1116.37 688.502C1126.83 689.663 1135.17 698.426 1141.29 714.578C1149.63 736.536 1184.25 850.761 1184.57 851.922C1184.89 853.083 1184.25 854.244 1183.2 854.561C1182.04 854.878 1180.88 854.244 1180.56 853.189C1180.24 852.027 1145.62 737.908 1137.28 716.056C1131.79 701.593 1124.5 693.675 1115.85 692.725C1093.47 690.191 1063.48 730.941 1042.9 761.872C1037.51 770.001 1031.18 780.135 1024.42 790.798C992.12 842.209 948.415 911.884 915.056 911.884Z" fill="black"/>
<path d="M1345.14 854.561C1344.72 854.561 1344.3 854.455 1343.87 854.139L1254.14 790.798C1253.19 790.164 1252.98 788.792 1253.61 787.842C1254.25 786.892 1255.62 786.681 1256.57 787.314L1346.3 850.655C1347.25 851.288 1347.46 852.661 1346.83 853.611C1346.41 854.244 1345.77 854.561 1345.14 854.561Z" fill="black"/>
<path d="M1013.97 816.557C986.314 816.557 963.828 801.038 949.893 788.053C934.691 773.907 925.929 759.655 925.929 759.55C918.434 747.937 912.1 735.691 906.927 722.918L896.159 696.42L973.013 666.122L986.525 682.485C999.088 705.816 1006.58 721.334 1006.69 721.545L1007.53 723.445L1009.43 722.601C1010.28 722.179 1097.48 683.435 1142.13 670.978C1159.02 666.227 1175.7 663.799 1190.17 663.799C1211.7 663.799 1225 669.395 1225 678.473V679.846L1226.27 680.374C1226.27 680.374 1230.7 682.485 1231.87 686.285C1232.5 688.397 1232.08 690.719 1230.6 693.147L1229.65 694.731L1231.13 695.892C1231.97 696.526 1238.73 702.226 1233.03 709.722L1232.18 710.883L1232.92 712.15C1232.92 712.15 1235.56 716.689 1233.77 720.49C1232.5 723.234 1229.02 725.135 1223.63 725.979C1219.41 726.718 1215.71 726.929 1212.23 727.14C1199.88 727.879 1188.16 728.618 1154.27 748.465C1142.24 755.433 1130.73 763.667 1119.44 771.69C1089.98 792.593 1059.47 814.234 1018.41 816.662C1016.93 816.451 1015.45 816.557 1013.97 816.557Z" fill="white"/>
<path d="M1190.17 665.7C1210.01 665.7 1222.89 670.661 1222.89 678.262V681.007L1225.32 682.168C1226.38 682.696 1229.12 684.385 1229.86 686.813C1230.28 688.291 1229.97 689.98 1228.8 691.986L1226.9 695.153L1229.86 697.476C1229.86 697.476 1231.65 698.954 1232.6 701.065C1233.77 703.493 1233.34 705.815 1231.44 708.349L1229.65 710.566L1231.13 712.994C1231.13 712.994 1233.13 716.689 1231.87 719.328C1230.6 721.967 1226.48 723.129 1223.31 723.656C1219.2 724.395 1215.61 724.607 1212.12 724.818C1199.46 725.557 1187.53 726.296 1153.32 746.354C1141.29 753.427 1129.57 761.661 1118.38 769.684C1089.14 790.481 1058.94 811.911 1018.51 814.234C1017.14 814.34 1015.66 814.34 1014.18 814.34C987.264 814.34 965.412 799.243 951.688 786.575C936.591 772.64 927.935 758.494 927.935 758.283V758.177V758.072C920.545 746.67 914.211 734.424 909.144 721.862L899.115 697.264L972.485 668.233L984.942 683.224C997.399 706.343 1004.89 721.862 1004.89 721.967L1006.69 725.662L1010.49 723.973C1011.33 723.551 1098.32 684.913 1142.87 672.456C1159.45 668.128 1175.81 665.7 1190.17 665.7ZM1190.17 661.477C1176.13 661.477 1159.23 663.799 1141.6 668.761C1096.21 681.429 1008.59 720.489 1008.59 720.489C1008.59 720.489 1001.09 704.865 988.32 681.218L973.646 663.483L893.414 695.153L905.027 723.656C910.199 736.536 916.639 748.887 924.134 760.605C924.134 760.605 959.183 818.668 1014.08 818.668C1015.56 818.668 1017.03 818.668 1018.62 818.562C1076.05 815.184 1112.15 775.49 1155.43 750.154C1198.72 724.818 1205.05 731.152 1224.05 727.985C1243.06 724.818 1234.82 710.988 1234.82 710.988C1242 701.593 1232.5 694.203 1232.5 694.203C1238.83 683.646 1227.22 678.368 1227.22 678.368C1227.12 667.283 1212.12 661.477 1190.17 661.477Z" fill="black"/>
<path d="M821.733 760.817C821.417 760.711 797.242 753.004 799.353 723.657C800.62 706.554 819.833 676.045 852.243 640.152C882.963 605.948 897.848 603.098 910.411 603.098C935.747 603.098 951.793 616.188 973.963 654.932C978.924 663.588 983.781 672.35 988.531 681.113L988.637 681.324L905.343 723.762C910.516 736.536 916.745 748.887 924.24 760.5L924.451 760.817H821.733V760.817Z" fill="#98D8F4"/>
<path d="M1159.55 683.541C1158.6 683.541 1157.76 682.907 1157.55 681.957C1157.23 680.796 1157.97 679.635 1159.02 679.423C1160.5 679.001 1196.61 669.922 1226.48 678.368C1227.64 678.684 1228.28 679.846 1227.96 681.007C1227.64 682.168 1226.48 682.802 1225.32 682.485C1196.61 674.251 1160.5 683.435 1160.08 683.541C1159.87 683.541 1159.76 683.541 1159.55 683.541Z" fill="black"/>
<path d="M1164.62 699.376C1163.67 699.376 1162.82 698.742 1162.61 697.792C1162.3 696.631 1163.04 695.47 1164.09 695.259C1165.36 694.942 1196.61 686.813 1230.49 693.147C1231.65 693.358 1232.39 694.414 1232.18 695.575C1231.97 696.737 1230.81 697.476 1229.75 697.264C1196.82 691.141 1165.57 699.27 1165.25 699.376C1164.94 699.376 1164.83 699.376 1164.62 699.376Z" fill="black"/>
<path d="M1169.9 715.211C1168.84 715.211 1168 714.472 1167.79 713.416C1167.57 712.255 1168.42 711.2 1169.47 710.988C1203.05 705.393 1220.78 706.977 1232.5 708.877C1233.66 709.088 1234.4 710.144 1234.19 711.305C1233.98 712.466 1232.92 713.205 1231.76 712.994C1220.36 711.094 1203.05 709.616 1170.21 715.105C1170.11 715.211 1170 715.211 1169.9 715.211Z" fill="black"/>
<path d="M1126.3 771.268C1125.45 771.268 1124.71 770.74 1124.4 770.001L1089.77 686.813C1089.35 685.757 1089.88 684.491 1090.93 684.068C1091.99 683.646 1093.25 684.174 1093.68 685.23L1128.3 768.417C1128.73 769.473 1128.2 770.74 1127.14 771.162C1126.83 771.268 1126.61 771.268 1126.3 771.268Z" fill="black"/>
<path d="M908.088 726.929C907.243 726.929 906.504 726.507 906.188 725.662C901.648 715.528 895.525 700.959 892.464 692.725C892.042 691.669 892.569 690.402 893.731 689.98C894.786 689.558 896.053 690.086 896.475 691.247C899.537 699.376 905.66 713.839 910.199 723.973C910.622 725.029 910.199 726.296 909.144 726.718C908.616 726.823 908.405 726.929 908.088 726.929Z" fill="black"/>
<path d="M1108.67 748.993C1120.91 748.993 1130.84 739.067 1130.84 726.823C1130.84 714.58 1120.91 704.654 1108.67 704.654C1096.42 704.654 1086.5 714.58 1086.5 726.823C1086.5 739.067 1096.42 748.993 1108.67 748.993Z" fill="white"/>
<path d="M1108.67 751.104C1095.26 751.104 1084.39 740.231 1084.39 726.824C1084.39 713.416 1095.26 702.543 1108.67 702.543C1122.07 702.543 1132.95 713.416 1132.95 726.824C1132.95 740.231 1122.07 751.104 1108.67 751.104ZM1108.67 706.766C1097.58 706.766 1088.61 715.739 1088.61 726.824C1088.61 737.908 1097.58 746.881 1108.67 746.881C1119.75 746.881 1128.73 737.908 1128.73 726.824C1128.73 715.739 1119.75 706.766 1108.67 706.766Z" fill="black"/>
<path d="M753.853 866.173C752.903 866.173 751.847 866.068 750.897 865.962C746.463 865.223 742.557 862.69 740.024 858.995C737.49 855.3 736.434 850.866 737.173 846.432C738.546 838.303 745.619 832.497 753.748 832.497C754.698 832.497 755.753 832.603 756.704 832.708L758.92 833.131L759.132 830.808C759.237 829.541 759.554 828.38 759.871 827.113C762.193 820.146 768.633 815.501 775.917 815.501C777.712 815.501 779.506 815.817 781.195 816.345L782.884 816.873L783.729 815.289C785.418 812.017 788.163 809.272 791.436 807.689C793.758 806.527 796.186 806 798.825 806C805.371 806 811.177 809.589 814.027 815.501L814.872 817.19L816.666 816.556C818.039 816.028 819.517 815.712 820.995 815.606C821.522 815.606 822.05 815.501 822.578 815.501C831.34 815.501 838.519 822.046 839.363 830.808L839.575 833.131L841.791 832.708C842.742 832.497 843.692 832.497 844.642 832.392C853.932 832.392 861.533 839.992 861.533 849.282C861.533 858.572 853.932 866.173 844.642 866.173H753.853V866.173Z" fill="white"/>
<path d="M798.825 808.111C804.526 808.111 809.593 811.278 812.127 816.451L813.816 819.935L817.405 818.562C818.567 818.14 819.833 817.823 821.206 817.718C821.628 817.718 822.156 817.612 822.578 817.612C830.179 817.612 836.513 823.313 837.252 831.019L837.674 835.559L842.214 834.714C843.058 834.609 843.903 834.503 844.747 834.503C852.876 834.503 859.527 841.154 859.527 849.283C859.527 857.411 852.876 864.062 844.747 864.062H753.959C753.114 864.062 752.27 863.956 751.425 863.851C747.519 863.217 744.141 861.001 741.924 857.833C739.707 854.561 738.757 850.655 739.496 846.749C740.763 839.676 746.886 834.503 754.064 834.503C754.909 834.503 755.754 834.609 756.598 834.714L761.137 835.453L761.56 830.914C761.665 829.858 761.876 828.802 762.193 827.747C764.199 821.624 769.794 817.612 776.234 817.612C777.817 817.612 779.295 817.823 780.773 818.351L784.257 819.512L785.84 816.24C787.318 813.389 789.641 810.961 792.597 809.589C794.391 808.639 796.503 808.111 798.825 808.111ZM798.825 803.888C796.081 803.888 793.23 804.522 790.591 805.788C786.896 807.583 783.835 810.645 781.934 814.339C779.929 813.706 778.028 813.389 776.023 813.389C767.999 813.389 760.61 818.457 757.97 826.48C757.548 827.852 757.231 829.225 757.126 830.597C756.07 830.386 754.909 830.28 753.853 830.28C744.774 830.28 736.751 836.825 735.168 846.01C733.373 856.356 740.235 866.173 750.581 867.968C751.636 868.179 752.798 868.285 753.853 868.285H844.642C855.093 868.285 863.644 859.734 863.644 849.283C863.644 838.831 855.093 830.28 844.642 830.28C843.586 830.28 842.425 830.386 841.369 830.597C840.419 820.779 832.185 813.389 822.473 813.389C821.839 813.389 821.311 813.389 820.678 813.495C818.989 813.6 817.405 814.023 815.822 814.551C812.549 807.794 805.793 803.888 798.825 803.888Z" fill="black"/>
<path d="M752.903 992.855L722.077 852.133H876.312L845.486 992.855H752.903Z" fill="white"/>
<path d="M873.673 854.244L843.797 990.744H754.487L724.611 854.244H873.673V854.244ZM878.951 850.021H719.543L751.214 994.967H847.281L878.951 850.021Z" fill="black"/>
<path d="M783.518 992.855L767.26 852.133H831.129L814.871 992.855H783.518Z" fill="white"/>
<path d="M828.806 854.244L812.971 990.744H785.524L769.688 854.244H828.806V854.244ZM833.557 850.021H764.938L781.723 994.967H816.772L833.557 850.021Z" fill="black"/>
</svg>
