<svg width="275" height="295" viewBox="0 0 275 295" fill="none" xmlns="http://www.w3.org/2000/svg">
<path d="M150 39.1094C150 14.7485 129.838 -5.62188 106.523 1.43902C94.6587 5.03207 83.2317 10.0982 72.5196 16.5602C49.1369 30.6656 30.0483 50.8867 17.3124 75.0428C4.57657 99.1989 -1.32339 126.373 0.248804 153.636C1.821 180.898 10.8057 207.215 26.234 229.747C41.6623 252.278 62.9488 270.171 87.798 281.495C112.647 292.819 140.116 297.145 167.243 294.006C194.37 290.866 220.125 280.382 241.732 263.682C251.63 256.031 260.485 247.209 268.125 237.447C283.139 218.263 271.438 192.099 248.725 183.29L238.866 179.466C221.598 172.769 202.435 182.556 187.782 193.882V193.882C178.883 200.76 168.275 205.079 157.102 206.372C145.929 207.664 134.615 205.883 124.381 201.219C114.146 196.555 105.379 189.185 99.024 179.905C92.6695 170.625 88.9689 159.786 88.3214 148.557C87.6738 137.328 90.1039 126.136 95.3494 116.186C100.595 106.237 108.457 97.9086 118.088 92.099V92.099C133.946 82.5324 150 68.205 150 49.6845L150 39.1094Z" fill="#FFB800"/>
</svg>
