<svg width="55" height="55" viewBox="0 0 55 55" fill="none" xmlns="http://www.w3.org/2000/svg">
<rect width="55" height="55" rx="16" fill="white"/>
<path d="M38.9372 40.0001H15.063C14.5129 40.0001 14.0669 39.5541 14.0669 39.004V29.0125C14.0669 28.4623 14.5129 28.0164 15.063 28.0164H38.9372C39.4873 28.0164 39.9333 28.4623 39.9333 29.0125V39.004C39.9333 39.5541 39.4873 40.0001 38.9372 40.0001Z" fill="#F3E49A"/>
<path d="M38.9371 28.0164H26.9958V40.0001H38.9371C39.4872 40.0001 39.9332 39.5541 39.9332 39.004V29.0125C39.9332 28.4623 39.4872 28.0164 38.9371 28.0164Z" fill="#EFD083"/>
<path d="M24.0034 29.0125H25.9956V33.0015H24.0034V29.0125Z" fill="#717687"/>
<path d="M28.0044 29.0125H29.9966V33.0015H28.0044V29.0125Z" fill="#575A65"/>
<path d="M18.334 35.998C17.7839 35.998 17.3379 35.5521 17.3379 35.002V33.0015C17.3379 32.4514 17.7839 32.0054 18.334 32.0054C18.8841 32.0054 19.3301 32.4514 19.3301 33.0015V35.002C19.3301 35.5521 18.8841 35.998 18.334 35.998Z" fill="#575A65"/>
<path d="M35.666 35.998C35.1159 35.998 34.6699 35.5521 34.6699 35.002V33.0015C34.6699 32.4514 35.1159 32.0054 35.666 32.0054C36.2161 32.0054 36.6621 32.4514 36.6621 33.0015V35.002C36.6621 35.5521 36.2161 35.998 35.666 35.998Z" fill="#292B2F"/>
<path d="M28.5477 32.9102C27.9533 32.9102 27.4107 33.1351 27 33.5042C26.5893 33.1352 26.0467 32.9102 25.4523 32.9102C24.174 32.9102 23.134 33.9501 23.134 35.2285V38.3247C23.134 38.7503 23.4791 39.0953 23.9047 39.0953H30.0954C30.521 39.0953 30.866 38.7503 30.866 38.3247V35.2285C30.866 33.9501 29.826 32.9102 28.5477 32.9102Z" fill="white"/>
<path d="M28.5475 32.9102C27.955 32.9102 27.4139 33.1339 27.0037 33.5009V39.0952H30.0952C30.5208 39.0952 30.8658 38.7502 30.8658 38.3246V35.2284C30.8658 33.9501 29.8259 32.9102 28.5475 32.9102Z" fill="#E9ECF4"/>
<path d="M35.002 26.0086H18.998C18.4479 26.0086 18.002 25.5626 18.002 25.0125V16.9976C18.002 16.4474 18.4479 16.0015 18.998 16.0015H35.002C35.5521 16.0015 35.998 16.4474 35.998 16.9976V25.0125C35.998 25.5626 35.5521 26.0086 35.002 26.0086Z" fill="#F3E49A"/>
<path d="M35.0019 16.0015H26.9958V26.0086H35.0019C35.552 26.0086 35.998 25.5626 35.998 25.0125V16.9976C35.998 16.4474 35.552 16.0015 35.0019 16.0015Z" fill="#EFD083"/>
<path d="M23.1042 17.1027H30.8959V24.8943H23.1042V17.1027Z" fill="white"/>
<path d="M27.0039 17.1027H30.8959V24.8943H27.0039V17.1027Z" fill="#E9ECF4"/>
<path d="M30.9927 16.0015H22.999C22.4489 16.0015 22.0029 16.4474 22.0029 16.9976V24.9995C22.0029 25.5496 22.4489 25.9956 22.999 25.9956H30.9927C31.5428 25.9956 31.9888 25.5496 31.9888 24.9995V16.9976C31.9888 16.4474 31.5428 16.0015 30.9927 16.0015ZM29.9966 20.0089H27.9961V17.3296H29.9966V20.0089ZM26.0039 17.3296V20.0089H23.9951V17.3296H26.0039ZM23.9951 22.0011H26.0039V24.6675H23.9951V22.0011ZM27.9961 24.6675V22.0011H29.9966V24.6675H27.9961Z" fill="#575A65"/>
<path d="M30.9927 16.0015H26.9958V25.9956H30.9927C31.5428 25.9956 31.9888 25.5496 31.9888 24.9995V16.9976C31.9888 16.4474 31.5428 16.0015 30.9927 16.0015ZM29.9966 24.6675H27.9961V22.0011H29.9966V24.6675ZM29.9966 20.0089H27.9961V17.3296H29.9966V20.0089Z" fill="#292B2F"/>
<path d="M18.998 14.002C18.4479 14.002 18.002 13.556 18.002 13.0059V10.9961C18.002 10.446 18.4479 10 18.998 10C19.5482 10 19.9941 10.446 19.9941 10.9961V13.0059C19.9941 13.556 19.5482 14.002 18.998 14.002Z" fill="#EEBA44"/>
<path d="M35.002 14.002C34.4518 14.002 34.0059 13.556 34.0059 13.0059V10.9961C34.0059 10.446 34.4518 10 35.002 10C35.5521 10 35.998 10.446 35.998 10.9961V13.0059C35.998 13.556 35.5521 14.002 35.002 14.002Z" fill="#E59749"/>
<path d="M15.224 17.1026C14.969 17.1026 14.9249 17.1356 14.3586 17.7018L13.2571 16.6004C12.8681 16.2115 12.8681 15.5807 13.2571 15.1917C13.646 14.8028 14.2768 14.8028 14.6658 15.1917L15.7672 16.2932C16.1563 16.6822 16.1563 17.3129 15.7672 17.7019C15.5727 17.8963 15.4789 17.1026 15.224 17.1026Z" fill="#EEBA44"/>
<path d="M38.2358 17.6988C37.8468 17.3099 37.8468 16.6792 38.2358 16.2902L39.3373 15.1887C39.7263 14.7997 40.357 14.7997 40.746 15.1887C41.135 15.5776 41.135 16.2083 40.746 16.5974L39.6437 17.6995C39.6437 17.6995 38.4304 17.8933 38.2358 17.6988V17.6988Z" fill="#E59749"/>
<path d="M38.9373 17.9936H15.063C14.5653 17.9936 14.1439 17.6261 14.0762 17.133C14.0085 16.6398 14.3152 16.1724 14.7946 16.0383C14.8243 16.0297 18.0021 15.0989 18.0021 12.9976C18.0021 12.4474 18.4481 12.0015 18.9982 12.0015H35.0021C35.5522 12.0015 35.9982 12.4474 35.9982 12.9976C35.9982 15.0822 39.1737 16.0293 39.2058 16.0383C39.6851 16.1724 39.9918 16.6399 39.9241 17.133C39.8564 17.6261 39.4351 17.9936 38.9373 17.9936Z" fill="#D73424"/>
<path d="M11.4306 29.7049L10.3291 28.6035C9.9401 28.2145 9.9401 27.5838 10.3291 27.1948C10.7181 26.8058 11.3488 26.8058 11.7378 27.1948L12.8393 28.2963C13.2283 28.6852 11.4306 29.7049 11.4306 29.7049V29.7049Z" fill="#EEBA44"/>
<path d="M41.1607 29.7048C40.7716 29.3159 40.7716 28.6851 41.1607 28.2961L42.2621 27.1947C42.6511 26.8057 43.2818 26.8057 43.6708 27.1947C44.0598 27.5836 44.0598 28.2143 43.6708 28.6033L42.5742 29.708C42.5742 29.708 41.3552 29.8993 41.1607 29.7048Z" fill="#E59749"/>
<path d="M41.8741 29.9966H12.1351C11.6373 29.9966 11.2159 29.6292 11.1483 29.1361C11.0805 28.6429 11.3873 28.1754 11.8666 28.0413C11.8963 28.0328 15.0741 27.1019 15.0741 25.0006C15.0741 24.4505 15.5201 24.0045 16.0702 24.0045H37.9389C38.489 24.0045 38.935 24.4505 38.935 25.0006C38.935 27.1019 42.1128 28.0328 42.1449 28.042C42.6227 28.1783 42.9282 28.6462 42.8594 29.1382C42.7906 29.6302 42.3709 29.9966 41.8741 29.9966V29.9966Z" fill="#D73424"/>
<path d="M42.1447 28.0419C42.1126 28.0327 38.9348 27.1018 38.9348 25.0005C38.9348 24.4504 38.4888 24.0044 37.9387 24.0044H26.9958V29.9965H41.874C42.3708 29.9965 42.7904 29.63 42.8592 29.138C42.928 28.646 42.6226 28.1782 42.1447 28.0419V28.0419Z" fill="#B3113B"/>
<path d="M39.2056 16.0383C39.1736 16.0293 35.998 15.0822 35.998 12.9976C35.998 12.4474 35.552 12.0015 35.0019 12.0015H26.9958V17.9936H38.9371C39.4349 17.9936 39.8562 17.6261 39.9239 17.133C39.9916 16.6398 39.685 16.1724 39.2056 16.0383Z" fill="#B3113B"/>
<path d="M29.0005 32.0054C28.2323 32.0054 27.5309 32.2962 27 32.7732C26.4691 32.2962 25.7677 32.0054 24.9995 32.0054C23.3472 32.0054 22.0029 33.3496 22.0029 35.002V39.004C22.0029 39.5541 22.4489 40.0001 22.999 40.0001H31.001C31.5511 40.0001 31.9971 39.5541 31.9971 39.004V35.002C31.9971 33.3496 30.6528 32.0054 29.0005 32.0054ZM23.9951 35.002C23.9951 34.4481 24.4457 33.9976 24.9995 33.9976C25.5533 33.9976 26.0039 34.4481 26.0039 35.002V38.0079H23.9951V35.002ZM30.0049 38.0079H27.9961V35.002C27.9961 34.4481 28.4467 33.9976 29.0005 33.9976C29.5543 33.9976 30.0049 34.4481 30.0049 35.002V38.0079Z" fill="#575A65"/>
<path d="M29.0005 32.0054C28.2341 32.0054 27.5343 32.2949 27.0039 32.77V40.0001H31.001C31.5511 40.0001 31.9971 39.5541 31.9971 39.004V35.002C31.9971 33.3496 30.6529 32.0054 29.0005 32.0054ZM30.0049 38.0079H27.9961V35.002C27.9961 34.4481 28.4467 33.9976 29.0005 33.9976C29.5544 33.9976 30.0049 34.4481 30.0049 35.002V38.0079Z" fill="#292B2F"/>
<path d="M43.0039 44H10.9961C10.446 44 10 43.5541 10 43.0039V39.004C10 38.4539 10.446 38.0079 10.9961 38.0079H43.0039C43.554 38.0079 44 38.4539 44 39.004V43.0039C44 43.5541 43.554 44 43.0039 44Z" fill="#717687"/>
<path d="M43.0039 38.0079H26.9958V44H43.0039C43.554 44 44 43.5541 44 43.0039V39.004C44 38.4539 43.554 38.0079 43.0039 38.0079Z" fill="#575A65"/>
</svg>
