<svg width="65" height="65" viewBox="0 0 65 65" fill="none" xmlns="http://www.w3.org/2000/svg">
<path d="M50 0H15C6.71573 0 0 6.71573 0 15V50C0 58.2843 6.71573 65 15 65H50C58.2843 65 65 58.2843 65 50V15C65 6.71573 58.2843 0 50 0Z" fill="white"/>
<path d="M11 45C13.3529 43.1879 14.7968 40.4439 17.2567 39.0977C18.3262 38.7353 20.0909 39.4601 21 39.9779" stroke="black" stroke-miterlimit="10" stroke-linecap="round" stroke-linejoin="round"/>
<path d="M47 32C44.0726 33.0625 41.0442 33.8352 38.47 35.7187C34.836 38.4233 32.4133 41.7073 31.6057 46.1023C31.4543 47.0682 31.6057 48.1307 31 49" stroke="black" stroke-miterlimit="10" stroke-linecap="round" stroke-linejoin="round"/>
<path d="M54 46C52.7553 44.4125 52.6515 42.3785 51.9254 40.5925C50.4213 36.7726 48.7616 33.0518 46.4276 29.6287C45.7533 28.5868 44.9234 27.4954 43.8343 26.9002C41.1891 25.3126 40.9298 22.8818 40.6186 20.3019C40.2556 17.4246 40.2556 14.3984 39.2183 11.6202C37.6104 7.05608 33.876 5.07167 29.5192 6.41114C28.2226 6.80803 27.2371 7.40335 26.6147 8.94126C25.9924 10.3799 25.2143 11.9675 24.1252 13.307C22.673 15.1426 22.8803 17.5238 23.3472 19.8059C23.6584 21.3934 23.7103 23.1297 25.0588 24.4196C25.1625 24.5188 24.955 24.9654 24.955 25.2133C24.8513 26.2551 24.7476 27.2969 25.2662 28.3389" stroke="black" stroke-miterlimit="10" stroke-linecap="round" stroke-linejoin="round"/>
<path d="M36 33C35.5766 32.4107 35.6825 31.7233 35.6296 31.0359C35.5237 28.2862 35.947 25.4873 34.9947 22.7867C34.8888 22.443 35.0476 22.2466 35.1005 21.952C35.5766 18.9076 35.1534 15.9123 34.8888 12.868C34.783 11.3949 32.9312 10.3638 31.0793 10.0691C29.3332 9.82362 27.6931 10.3147 26 10.2656" stroke="black" stroke-miterlimit="10" stroke-linecap="round" stroke-linejoin="round"/>
<path d="M46 36.0565C43.9603 35.8088 42.2914 36.3535 40.9471 38.1362C40.159 39.1761 40.0199 40.4141 39.7881 41.6025C39.4636 43.3852 39.2782 45.1679 39 47" stroke="black" stroke-miterlimit="10" stroke-linecap="round" stroke-linejoin="round"/>
<path d="M33 35C32.4068 36.1646 31.1018 36.8228 30.2711 37.8354C28.1356 40.4178 26.2372 43.0506 26.3558 46.3418C26.3558 46.5444 26.1186 46.7975 26 47" stroke="black" stroke-miterlimit="10" stroke-linecap="round" stroke-linejoin="round"/>
<path d="M19.2241 43.0091C16.0092 42.8987 14.9739 43.7813 14.211 46.4841C13.5027 48.9111 14.6469 50.621 16.6085 52C17.3169 51.7793 18.0797 51.7793 18.8971 51.9448C19.8779 52.1103 20.7498 51.6691 21.6216 51.1174C23.2563 50.0694 23.8557 50.2901 25 52" stroke="black" stroke-miterlimit="10" stroke-linecap="round" stroke-linejoin="round"/>
<path d="M45 52C43.6586 49.3902 41.8878 48.5484 39.8488 49.2217C37.9171 49.8953 35.7707 49.5585 34 51.4107" stroke="black" stroke-miterlimit="10" stroke-linecap="round" stroke-linejoin="round"/>
<path d="M29.9623 24C30.1094 25.2914 29.8641 26.3345 28.5397 26.9801C27.7548 27.3278 27.1662 28.1723 26.4304 28.5695C25.3021 29.1159 24.4681 30.1093 23.0946 30.5563C20.74 31.3511 19.5136 33.7351 18.6796 36.1192C18.3853 37.0629 17.8458 37.957 18.0419 39" stroke="black" stroke-miterlimit="10" stroke-linecap="round" stroke-linejoin="round"/>
<path d="M24 30.1694C24.5135 32.9658 26.9267 33.5759 29.0831 34.3386C30.0587 34.6945 31.137 34.7454 32.1124 34.9488C32.7799 35.1013 33.2934 34.8979 33.8068 34.542C36.8876 32.3048 40.2763 30.627 43.9731 29.6609C44.3325 29.5592 44.6406 29.2542 45 29" stroke="black" stroke-miterlimit="10" stroke-linecap="round" stroke-linejoin="round"/>
<path d="M25 14C25.8629 15.1553 25.9137 16.4818 25.8121 17.8083C25.6599 20.2473 26.9797 21.9588 29.5177 22.8146C30.6345 23.1997 32.1066 22.943 33.3249 22.4294C33.934 22.1727 34.4416 21.8732 35 21.5737" stroke="black" stroke-miterlimit="10" stroke-linecap="round" stroke-linejoin="round"/>
<path d="M35 53C33.7214 51.0524 31.7779 49.9537 29.7834 48.905C28.1979 48.056 26.5613 47.307 24.7201 47.0572C22.9812 46.8076 22.163 47.3568 22.0095 49.0548C21.9584 49.8538 22.1119 50.5529 22.521 51.2022" stroke="black" stroke-miterlimit="10" stroke-linecap="round" stroke-linejoin="round"/>
<path d="M28 54.3656C27.7501 53.2365 26.5626 52.7527 25.875 52C21 53.6129 21 53.6129 21 57" stroke="black" stroke-miterlimit="10" stroke-linecap="round" stroke-linejoin="round"/>
<path d="M31 55.2306C30.5139 55.1163 29.9736 55.0593 29.5955 54.8308C28.9472 54.431 28.299 53.8599 27.6508 54.0312C26.4623 54.3167 25.2199 54.7165 24.3015 55.4591C23.3292 56.2586 22.951 57.5722 23.005 59" stroke="black" stroke-miterlimit="10" stroke-linecap="round" stroke-linejoin="round"/>
<path d="M21.9772 35C21.2612 36.6667 20.9543 38.4849 21.0055 40.1515C21.0566 41.8182 21.7726 43.5859 23 45" stroke="black" stroke-miterlimit="10" stroke-linecap="round" stroke-linejoin="round"/>
<path d="M34 55C32.6667 54.0126 31.3333 52.9874 30 52" stroke="black" stroke-miterlimit="10" stroke-linecap="round" stroke-linejoin="round"/>
<path d="M19 47C17.34 48.5104 18.1701 50.2812 18.5118 52" stroke="black" stroke-miterlimit="10" stroke-linecap="round" stroke-linejoin="round"/>
</svg>
