<svg width="47" height="47" viewBox="0 0 47 47" fill="none" xmlns="http://www.w3.org/2000/svg">
<rect width="47" height="47" rx="9" fill="#F4FAFF"/>
<path d="M39.985 14.2021C39.8804 13.0332 38.8519 12.1709 37.6872 12.2759C36.5228 12.381 35.6636 13.4136 35.7683 14.5824C35.7693 14.5932 35.9852 15.9136 34.9736 16.6391C33.6253 17.6061 32.3464 17.7832 31.432 17.8212C31.946 15.3205 32.2052 12.7507 32.2052 10.1248C32.2052 8.96209 31.2747 8.01743 30.1204 8.00023C28.9406 7.98263 27.9728 8.98462 27.9714 10.169C27.9618 17.8312 26.8723 24.8924 21.9355 31.234C21.6225 29.3356 20.818 27.1005 19.0966 24.6942C20.7838 22.9705 22.8329 20.0402 22.8147 15.9842C22.8126 15.532 22.6699 15.1132 22.4284 14.7699C22.0432 14.2222 21.4068 13.8658 20.6883 13.869C19.5191 13.8744 18.5757 14.8299 18.5809 16.0035C18.589 17.784 17.962 19.4652 16.7174 21.0005C16.7018 21.0198 16.6862 21.0385 16.6706 21.0575C15.9757 19.5953 15.5942 18.0494 15.5298 16.4315C15.5294 16.4239 15.5292 16.4162 15.5288 16.4086C15.5132 15.9988 15.5173 15.5846 15.5424 15.1658C15.6149 13.9601 15.9947 12.7063 16.3573 11.7517C16.722 10.7919 16.3481 9.70831 15.4658 9.18805L15.4432 9.17472C14.3345 8.52102 12.9038 9.01641 12.4381 10.2194C12.0058 11.3361 11.5601 12.7471 11.3845 14.159C10.7014 13.8012 10.2338 13.0839 10.2338 12.2585C10.2338 11.085 9.28605 10.1336 8.1169 10.1336C6.94782 10.1337 6 11.085 6 12.2586C6 15.4895 8.40052 18.1678 11.5053 18.592C11.9709 21.3964 13.1737 24.0456 15.0682 26.397C19.7249 32.1768 17.2092 36.3364 17.0088 36.6474C16.3603 37.5296 16.5035 38.7411 17.3199 39.4719C17.7156 39.8261 18.2136 40 18.713 40C19.2477 40 19.7837 39.8006 20.1969 39.4098C22.2622 37.4569 24.0993 35.4169 25.6976 33.3052C26.7184 33.8231 28.4498 34.4928 30.58 34.4928C31.7526 34.4928 33.046 34.2897 34.4072 33.7465C35.4936 33.3131 36.0243 32.0775 35.5924 30.9871C35.1605 29.8966 33.9296 29.3637 32.8433 29.7975C30.873 30.5837 29.1391 30.1724 28.1181 29.7551C28.6959 28.8063 30.3784 23.8781 30.9084 22.3303C33.7319 22.0821 36.6148 21.1356 38.0983 19.5066C40.1881 17.2118 40.012 14.5034 39.985 14.2021V14.2021Z" fill="#10316B"/>
</svg>
