<svg width="23" height="30" viewBox="0 0 23 30" fill="none" xmlns="http://www.w3.org/2000/svg">
<path d="M22.4602 20.8898L21.0938 19.9789V12.0703C21.0938 7.03564 17.2252 2.88826 12.3047 2.44271V0.878906C12.3047 0.393516 11.9112 0 11.4258 0C10.9404 0 10.5469 0.393516 10.5469 0.878906V2.44271C5.62635 2.88826 1.75781 7.03564 1.75781 12.0703V19.9789L0.391406 20.8898C0.146836 21.0529 0 21.3272 0 21.6211V25.1367C0 25.6221 0.393516 26.0156 0.878906 26.0156H6.67236C7.08492 28.2789 9.05865 30 11.4258 30C13.7929 30 15.7666 28.2789 16.1792 26.0156H21.9727C22.458 26.0156 22.8516 25.6221 22.8516 25.1367V21.6211C22.8516 21.3272 22.7047 21.0528 22.4602 20.8898ZM11.4258 28.2422C10.0319 28.2422 8.85147 27.3012 8.47506 26.0156H14.3766C14.0001 27.3012 12.8197 28.2422 11.4258 28.2422ZM21.0938 24.2578C20.2781 24.2578 2.71793 24.2578 1.75781 24.2578V22.0914L3.12422 21.1805C3.36873 21.0175 3.51562 20.7431 3.51562 20.4492V12.0703C3.51562 7.70865 7.06412 4.16016 11.4258 4.16016C15.7874 4.16016 19.3359 7.70865 19.3359 12.0703V20.4492C19.3359 20.7431 19.4828 21.0175 19.7273 21.1805L21.0938 22.0914V24.2578Z" fill="white"/>
</svg>
