<svg id="glass" width="16" height="16" viewBox="0 0 16 16" xmlns="http://www.w3.org/2000/svg">
<path fill-rule="evenodd" clip-rule="evenodd" d="M7.212 1.803C6.50168 1.803 5.79832 1.94291 5.14207 2.21474C4.48582 2.48656 3.88953 2.88499 3.38726 3.38726C2.88499 3.88953 2.48656 4.48582 2.21474 5.14207C1.94291 5.79832 1.803 6.50168 1.803 7.212C1.803 7.92232 1.94291 8.62568 2.21474 9.28193C2.48656 9.93818 2.88499 10.5345 3.38726 11.0367C3.88953 11.539 4.48582 11.9374 5.14207 12.2093C5.79832 12.4811 6.50168 12.621 7.212 12.621C8.64656 12.621 10.0224 12.0511 11.0367 11.0367C12.0511 10.0224 12.621 8.64656 12.621 7.212C12.621 5.77744 12.0511 4.40164 11.0367 3.38726C10.0224 2.37288 8.64656 1.803 7.212 1.803V1.803ZM0 7.212C0 5.29926 0.759834 3.46486 2.11235 2.11235C3.46486 0.759834 5.29926 0 7.212 0C9.12474 0 10.9591 0.759834 12.3117 2.11235C13.6642 3.46486 14.424 5.29926 14.424 7.212C14.424 9.12474 13.6642 10.9591 12.3117 12.3117C10.9591 13.6642 9.12474 14.424 7.212 14.424C5.29926 14.424 3.46486 13.6642 2.11235 12.3117C0.759834 10.9591 0 9.12474 0 7.212H0Z"/>
<path fill-rule="evenodd" clip-rule="evenodd" d="M11.0299 11.03C11.1136 10.9463 11.213 10.8798 11.3224 10.8344C11.4317 10.7891 11.549 10.7657 11.6674 10.7657C11.7858 10.7657 11.9031 10.7891 12.0125 10.8344C12.1219 10.8798 12.2212 10.9463 12.3049 11.03L15.7349 14.462C15.8925 14.6333 15.9778 14.8587 15.973 15.0914C15.9682 15.324 15.8737 15.5458 15.7092 15.7104C15.5448 15.875 15.3231 15.9697 15.0904 15.9746C14.8578 15.9796 14.6323 15.8945 14.4609 15.737L11.0299 12.306C10.9461 12.2224 10.8797 12.123 10.8343 12.0136C10.789 11.9042 10.7656 11.787 10.7656 11.6685C10.7656 11.5501 10.789 11.4329 10.8343 11.3235C10.8797 11.2141 10.9461 11.1147 11.0299 11.031V11.03Z"/>
</svg>
